<svg width="20" height="20" viewBox="0 0 22 20" fill="none" xmlns="http://www.w3.org/2000/svg">
<path d="M16.9461 9.7768L16.9456 9.77767C16.6746 10.2718 16.1478 10.6 15.5463 10.6H8.09634H7.85983L7.74585 10.8072L6.64585 12.8072L6.31983 13.4H6.99634H18.5963V14.6H6.99634C5.78404 14.6 5.01154 13.299 5.59699 12.2225C5.59719 12.2221 5.59739 12.2217 5.5976 12.2214L6.94634 9.78365L7.04571 9.60404L6.95775 9.41858L3.35775 1.82858L3.24933 1.6H2.99634H1.39634V0.4H4.01236L4.84433 2.17014L4.95236 2.4H5.20634H20.0063C20.4616 2.4 20.7475 2.89181 20.5274 3.28439L20.5261 3.2868L16.9461 9.7768ZM6.15634 3.6H5.52408L5.79489 4.17133L8.16489 9.17133L8.27328 9.4H8.52634H15.5463H15.7824L15.8965 9.19331L18.6565 4.19331L18.984 3.6H18.3063H6.15634ZM5.40634 18C5.40634 17.1183 6.11986 16.4 6.99634 16.4C7.87542 16.4 8.59634 17.1209 8.59634 18C8.59634 18.8791 7.87542 19.6 6.99634 19.6C6.11986 19.6 5.40634 18.8817 5.40634 18ZM15.4063 18C15.4063 17.1183 16.1199 16.4 16.9963 16.4C17.8754 16.4 18.5963 17.1209 18.5963 18C18.5963 18.8791 17.8754 19.6 16.9963 19.6C16.1199 19.6 15.4063 18.8817 15.4063 18Z" stroke="black" stroke-width="0.8"/>
</svg>
