<svg width="24" height="24" viewBox="0 0 24 24" fill="none" xmlns="http://www.w3.org/2000/svg">
<path d="M17.9461 11.7768L17.9456 11.7777C17.6746 12.2718 17.1478 12.6 16.5463 12.6H9.09634H8.85983L8.74585 12.8072L7.64585 14.8072L7.31983 15.4H7.99634H19.5963V16.6H7.99634C6.78404 16.6 6.01154 15.299 6.59699 14.2225C6.59719 14.2221 6.59739 14.2217 6.5976 14.2214L7.94634 11.7836L8.04571 11.604L7.95775 11.4186L4.35775 3.82858L4.24933 3.6H3.99634H2.39634V2.4H5.01236L5.84433 4.17014L5.95236 4.4H6.20634H21.0063C21.4616 4.4 21.7475 4.89181 21.5274 5.28439L21.5261 5.2868L17.9461 11.7768ZM7.15634 5.6H6.52408L6.79489 6.17133L9.16489 11.1713L9.27328 11.4H9.52634H16.5463H16.7824L16.8965 11.1933L19.6565 6.19331L19.984 5.6H19.3063H7.15634ZM6.40634 20C6.40634 19.1183 7.11986 18.4 7.99634 18.4C8.87542 18.4 9.59634 19.1209 9.59634 20C9.59634 20.8791 8.87542 21.6 7.99634 21.6C7.11986 21.6 6.40634 20.8817 6.40634 20ZM16.4063 20C16.4063 19.1183 17.1199 18.4 17.9963 18.4C18.8754 18.4 19.5963 19.1209 19.5963 20C19.5963 20.8791 18.8754 21.6 17.9963 21.6C17.1199 21.6 16.4063 20.8817 16.4063 20Z" stroke="#2F327D" stroke-width="0.8"/>
</svg>
