<svg width="158" height="129" viewBox="0 0 158 129" fill="none" xmlns="http://www.w3.org/2000/svg">
<g filter="url(#filter0_d_0_23)">
<rect x="28.8342" y="21" width="100.227" height="71.4578" rx="5.76117" fill="#0060AF"/>
<path fill-rule="evenodd" clip-rule="evenodd" d="M49.4482 63.5763C49.4482 62.6173 49.4593 60.0539 49.4342 59.738C49.4561 55.9236 46.5086 53.2328 44.6464 53.4426C43.3579 53.5478 42.2778 54.0422 41.6982 55.4644C41.1606 56.7898 41.6413 58.5527 43.428 58.9664C45.3383 59.4107 46.4541 59.7803 47.2615 60.3018C48.2508 60.9402 49.0584 62.16 49.0798 63.5778" fill="white"/>
<path fill-rule="evenodd" clip-rule="evenodd" d="M48.6498 63.5778C48.656 62.3485 47.9268 61.2615 46.9737 60.6773C46.1283 60.161 44.9934 59.8219 43.1624 59.3848C42.5964 59.2486 42.0043 58.946 41.821 58.5603C41.3362 59.02 41.2481 60.0534 41.3334 60.6575C41.4326 61.3563 42.3006 62.5081 43.6075 62.5532C44.4057 62.5834 45.4148 62.3916 45.8987 62.2949C46.7335 62.1253 48.0543 62.6172 48.2646 63.5763" fill="white"/>
<path fill-rule="evenodd" clip-rule="evenodd" d="M50.1233 47.4977C47.9071 47.4977 45.9931 48.8728 45.9998 51.2523C46.0067 53.2532 47.7169 54.3244 48.3274 55.0895C49.2495 56.2424 49.7487 57.6071 49.8003 59.6952C49.8409 61.3571 49.8388 62.9982 49.8478 63.5797H50.3368C50.3285 62.9713 50.3064 61.2291 50.3315 59.6438C50.3647 57.5551 50.8818 56.2424 51.8044 55.0895C52.4202 54.3244 54.1288 53.2532 54.1325 51.2523C54.141 48.8728 52.2277 47.4977 50.0138 47.4977" fill="white"/>
<path fill-rule="evenodd" clip-rule="evenodd" d="M50.6857 63.5763C50.6857 62.6173 50.6741 60.0539 50.6988 59.738C50.6771 55.9236 53.6228 53.2328 55.4865 53.4426C56.7751 53.5478 57.8538 54.0422 58.4352 55.4644C58.9722 56.7898 58.4889 58.5527 56.7045 58.9664C54.7928 59.4107 53.6786 59.7803 52.8692 60.3018C51.8811 60.9402 51.1299 62.16 51.1069 63.5778" fill="white"/>
<path fill-rule="evenodd" clip-rule="evenodd" d="M51.4837 63.5778C51.4768 62.3485 52.2058 61.2615 53.1561 60.6773C54.0052 60.161 55.1413 59.8219 56.9707 59.3848C57.5378 59.2486 58.1292 58.946 58.3092 58.5603C58.7964 59.02 58.8844 60.0534 58.7989 60.6575C58.6979 61.3563 57.832 62.5081 56.5273 62.5532C55.7296 62.5834 54.715 62.3916 54.2332 62.2949C53.4016 62.1253 52.0771 62.6172 51.8659 63.5763" fill="white"/>
<path fill-rule="evenodd" clip-rule="evenodd" d="M52.1671 67.5464L51.8838 65.5995L52.5683 65.5019C52.7347 65.4806 52.9376 65.508 53.0188 65.606C53.1084 65.7086 53.1359 65.7934 53.1532 65.9279C53.1792 66.0945 53.128 66.2867 52.9289 66.3826V66.3885C53.1511 66.3885 53.2855 66.5388 53.3247 66.7926C53.3302 66.8464 53.3473 66.9757 53.3302 67.0837C53.285 67.3408 53.1223 67.4236 52.847 67.4598L52.1671 67.5464ZM52.6077 67.198C52.6888 67.187 52.7711 67.1828 52.8355 67.1442C52.9341 67.0837 52.9251 66.9544 52.9113 66.8581C52.8772 66.647 52.8186 66.5666 52.5805 66.5997L52.4306 66.6214L52.5256 67.2087L52.6077 67.198ZM52.4645 66.2982C52.5552 66.2845 52.6778 66.2741 52.729 66.1932C52.756 66.1392 52.7901 66.0963 52.7675 65.9761C52.7396 65.8338 52.6896 65.7453 52.4971 65.7795L52.3179 65.8067L52.3887 66.3056L52.4645 66.2982Z" fill="white"/>
<path fill-rule="evenodd" clip-rule="evenodd" d="M55.1324 66.3756C55.1377 66.4118 55.1439 66.4522 55.1462 66.4884C55.2015 66.8433 55.1324 67.1374 54.7082 67.2183C54.0809 67.3318 53.9607 66.9654 53.8505 66.4522L53.7917 66.1743C53.7053 65.6834 53.6682 65.3116 54.2796 65.1968C54.6242 65.1378 54.852 65.2669 54.9468 65.5897C54.9615 65.6378 54.98 65.6853 54.9869 65.7339L54.6118 65.8068C54.5685 65.6853 54.511 65.4686 54.3423 65.4868C54.0394 65.5213 54.1394 65.8758 54.1705 66.0242L54.2833 66.5572C54.3172 66.7183 54.3845 66.9758 54.6466 66.9262C54.8594 66.886 54.7665 66.5741 54.7476 66.4461" fill="white"/>
<path fill-rule="evenodd" clip-rule="evenodd" d="M55.7342 66.9647L55.6046 64.9499L56.1084 64.8052L57.1649 66.5575L56.7682 66.6692L56.5178 66.2239L56.0772 66.3484L56.1342 66.8547L55.7342 66.9647ZM56.0403 66.023L56.3587 65.9363L55.9359 65.1211L56.0403 66.023Z" fill="white"/>
<path fill-rule="evenodd" clip-rule="evenodd" d="M43.2866 65.4413C43.4443 64.9665 43.5854 64.6166 44.1873 64.7719C44.5094 64.8567 44.709 64.9901 44.6996 65.3422C44.698 65.4205 44.6705 65.5005 44.6526 65.5778L44.2779 65.4806C44.327 65.286 44.3582 65.1318 44.1036 65.058C43.8095 64.9821 43.7378 65.3179 43.6972 65.4628L43.5448 65.9908C43.4964 66.1476 43.4383 66.4069 43.6972 66.4739C43.9111 66.5279 44.0407 66.3305 44.1182 66.042L43.8563 65.9765L43.9469 65.671L44.5631 65.8574L44.2705 66.8754L43.987 66.803L44.0508 66.5878H44.0428C43.912 66.7639 43.753 66.7824 43.6135 66.757C42.9972 66.6004 43.0616 66.2214 43.2087 65.7151" fill="white"/>
<path fill-rule="evenodd" clip-rule="evenodd" d="M45.5804 66.3012L45.3948 67.1294L44.9771 67.0446L45.4222 65.1107L46.1344 65.2619C46.5512 65.3467 46.6771 65.5211 46.6181 65.8808C46.5844 66.0871 46.4763 66.3092 46.2123 66.2912L46.2095 66.288C46.4327 66.3613 46.4516 66.4674 46.4127 66.6502C46.3958 66.7283 46.2799 67.2008 46.3599 67.2771L46.3626 67.3353L45.9304 67.229C45.9124 67.0982 45.9737 66.8626 45.9979 66.732C46.0221 66.6166 46.0611 66.4539 45.9366 66.393C45.8393 66.3439 45.8029 66.3463 45.6927 66.3227L45.5804 66.3012ZM45.6516 66.0016L45.9329 66.073C46.1037 66.0964 46.1987 66.0131 46.2324 65.8188C46.2628 65.6407 46.2234 65.5712 46.0701 65.5368L45.7685 65.479L45.6516 66.0016Z" fill="white"/>
<path fill-rule="evenodd" clip-rule="evenodd" d="M48.2599 65.5426L48.673 65.5877L48.495 66.9474C48.4086 67.3784 48.2315 67.5667 47.7275 67.5079C47.2148 67.4468 47.0931 67.2272 47.124 66.7927L47.3033 65.4344L47.7197 65.479L47.541 66.8071C47.5219 66.9513 47.4866 67.165 47.7591 67.191C48.001 67.2084 48.0558 67.0574 48.0833 66.87" fill="white"/>
<path fill-rule="evenodd" clip-rule="evenodd" d="M49.1284 67.5822L49.2529 65.6381L50.0464 65.6704C50.4218 65.688 50.5198 65.9761 50.5082 66.2512C50.4972 66.4184 50.4418 66.6052 50.2869 66.7065C50.1599 66.7926 49.9964 66.813 49.8452 66.8061L49.5865 66.7926L49.5349 67.6074L49.1284 67.5822ZM49.598 66.4961L49.8083 66.5071C49.9791 66.513 50.0923 66.4494 50.1071 66.2134C50.1156 65.9869 50.0243 65.9483 49.803 65.9392L49.6365 65.9338L49.598 66.4961Z" fill="white"/>
<path fill-rule="evenodd" clip-rule="evenodd" d="M105.112 49.3767L101.957 54.7647C100.767 53.8547 99.3127 53.1852 97.4575 53.1852C93.0672 53.1852 91.2837 56.2643 91.2837 58.4333C91.2837 60.0435 92.4042 62.4189 96.3105 62.4189C97.9504 62.4189 100.281 61.3457 100.952 60.8572L97.8321 67.1081C96.3449 67.3873 95.8561 67.5604 94.5973 67.5971C87.6054 67.7934 84.7803 63.7519 84.7821 59.6225C84.7869 54.1631 89.9452 47.5239 98.4968 47.5239C99.0206 47.5239 99.6615 47.6946 100.21 47.8836L100.764 47.2169" fill="white"/>
<path fill-rule="evenodd" clip-rule="evenodd" d="M118.129 47.3861L119.023 66.9682H112.374L112.37 63.61H107.837L106.345 66.9682H99.1344L106.673 52.985L104.973 52.9745L108.202 47.3861H118.129ZM112.327 53.3767L109.764 59.0725H112.405L112.327 53.3767Z" fill="white"/>
<path fill-rule="evenodd" clip-rule="evenodd" d="M80.5849 47.3861C83.8773 47.4035 85.7378 49.0851 85.7378 51.514C85.7378 53.7535 83.7756 55.7356 81.6217 56.7606C83.8393 57.5278 84.0311 59.4107 84.0311 60.7427C84.0311 63.9612 80.5992 66.9682 76.1379 66.9682H66.4082L70.2034 53.1798L68.6445 53.1713L71.8313 47.3861C71.8313 47.3861 77.9076 47.3688 80.5849 47.3861ZM77.3548 55.3256C78.0358 55.3256 79.2384 55.1634 79.539 53.9232C79.8684 52.5767 78.7399 52.5405 78.1986 52.5405L76.2643 52.5327L75.5898 55.3256H77.3548ZM74.62 58.786L73.7294 62.0043H76.0072C76.9031 62.0043 78.1243 61.5856 78.4236 60.5383C78.7191 59.4882 77.8654 58.786 76.9727 58.786H74.62Z" fill="white"/>
<path fill-rule="evenodd" clip-rule="evenodd" d="M50.2108 69.3744C46.8419 69.3744 43.38 68.5937 39.9225 67.0496L39.8377 67.0103L39.7971 66.929C38.2455 63.8474 37.4248 60.477 37.4248 57.1793C37.4248 53.8864 38.2119 50.66 39.7644 47.5825L39.8073 47.5007L39.8937 47.4599C43.0921 46.0343 46.5325 45.3124 50.1232 45.3124C53.4678 45.3124 57.0401 46.1161 60.4517 47.6411L60.539 47.6777L60.5796 47.761C62.1607 50.8995 62.9946 54.2692 62.9946 57.5125C62.9946 60.7427 62.1939 63.9721 60.6107 67.1086L60.5692 67.1908L60.4812 67.229C57.3315 68.6319 53.7799 69.3744 50.2108 69.3744ZM40.2426 66.627C43.6012 68.1139 46.9512 68.8644 50.2109 68.8644C53.6672 68.8644 57.1044 68.1536 60.1645 66.806C61.6844 63.7667 62.4549 60.6386 62.4549 57.5125C62.4549 54.3734 61.6508 51.1084 60.1296 48.0621C56.8188 46.5977 53.3611 45.8211 50.1233 45.8211C46.6471 45.8211 43.3151 46.5148 40.2135 47.8836C38.7247 50.8663 37.9669 53.992 37.9669 57.1793C37.9669 60.3722 38.7542 63.6387 40.2426 66.627Z" fill="white"/>
<rect x="25.8342" y="18" width="106.227" height="77.4578" rx="9" stroke="white" stroke-opacity="0.2" stroke-width="6" shape-rendering="crispEdges"/>
</g>
<defs>
<filter id="filter0_d_0_23" x="0.561666" y="0.151626" width="156.772" height="128.003" filterUnits="userSpaceOnUse" color-interpolation-filters="sRGB">
<feFlood flood-opacity="0" result="BackgroundImageFix"/>
<feColorMatrix in="SourceAlpha" type="matrix" values="0 0 0 0 0 0 0 0 0 0 0 0 0 0 0 0 0 0 127 0" result="hardAlpha"/>
<feOffset dy="7.42419"/>
<feGaussianBlur stdDeviation="11.1363"/>
<feComposite in2="hardAlpha" operator="out"/>
<feColorMatrix type="matrix" values="0 0 0 0 0.795833 0 0 0 0 0.295122 0 0 0 0 0.355207 0 0 0 0.3 0"/>
<feBlend mode="normal" in2="BackgroundImageFix" result="effect1_dropShadow_0_23"/>
<feBlend mode="normal" in="SourceGraphic" in2="effect1_dropShadow_0_23" result="shape"/>
</filter>
</defs>
</svg>
