<svg width="158" height="129" viewBox="0 0 158 129" fill="none" xmlns="http://www.w3.org/2000/svg">
<g filter="url(#filter0_d_0_13)">
<rect x="28.7167" y="21.2712" width="100.227" height="71.4578" rx="5.76117" fill="white"/>
<path fill-rule="evenodd" clip-rule="evenodd" d="M44.9704 63.7036L48.3718 67.908H39.9505L44.9704 63.7036ZM43.9007 62.4049L37.3131 67.9208L37.3104 54.355L43.9007 62.4049ZM59.7509 48.745C59.7509 48.745 58.3047 48.0617 56.6247 48.1615C54.704 48.2744 53.0972 49.0096 52.1734 49.9798C51.5921 50.5893 50.9496 51.3328 50.6268 52.1403C50.1587 53.3084 50.0588 54.8519 50.0588 54.8519C50.0588 54.8519 49.387 54.2828 48.5454 52.6245C47.5668 50.6957 47.2991 49.5273 47.1665 48.1944C47.0485 47.0246 47.2338 45.868 47.2338 45.868H59.7509V48.745ZM59.751 52.5908V61.1445C59.751 61.1445 58.9728 61.4428 58.3381 61.4428C57.7034 61.4428 56.6224 61.3489 55.367 60.6599C54.1207 59.9766 53.4309 59.1499 52.8961 58.4007C52.3537 57.6387 51.9059 56.5824 51.7727 55.8213C51.6657 55.2123 51.5504 53.6934 52.1735 52.4589C52.5117 51.789 53.4192 50.6406 55.1665 50.5753C56.5908 50.5208 57.3806 50.8945 58.1045 51.291C59.482 52.0472 59.751 52.5908 59.751 52.5908ZM46.1213 60.5438L48.3791 58.6653C47.6595 57.7479 47.4693 57.4022 46.665 56.2178C45.8414 55.0055 45.1516 53.6717 44.5617 52.1068C43.9232 50.4116 43.7689 49.4599 43.8394 48.1944C43.9278 46.5843 44.2946 45.868 44.2946 45.868H37.3073L37.3105 49.6269C37.3105 49.6269 42.6591 56.3173 46.1213 60.5438ZM52.5723 67.9018H59.7509V62.6773C59.7509 62.6773 57.9704 63.4925 56.813 63.5584C56.1239 63.5985 55.4552 63.625 54.3761 63.3384C53.1766 63.0203 52.4951 62.7102 51.3834 61.7949C50.4904 61.0607 49.4694 59.9766 49.4694 59.9766L47.1984 61.8666C48.252 63.153 49.0302 64.0894 49.2684 64.3415C50.2927 65.4219 50.7267 65.8189 51.4166 66.2039C52.1062 66.5897 54.4101 66.5689 54.4101 66.5689L52.5723 67.9018Z" fill="#E94E0F"/>
<path fill-rule="evenodd" clip-rule="evenodd" d="M114.042 63.2545C114.042 64.7683 114.247 67.2565 112.548 67.8623V67.9631H118.999V67.8623C117.302 67.2233 117.505 64.7683 117.505 63.2545V50.5759C117.505 49.0629 117.302 46.5741 118.999 45.9352V45.8343H112.548V45.9352C114.28 46.5741 114.042 49.0292 114.042 50.5759V63.2545ZM90.3891 50.5759L102.035 65.2054C103.528 67.1219 104.581 68.2323 106.992 69.0389V50.1724C106.992 48.2894 106.992 46.9439 108.757 45.9352V45.8343H102.781V45.9352C104.581 46.9439 104.547 48.2894 104.547 50.1724V62.9184L92.121 47.3811L91.6451 46.7084C91.4079 46.4395 91.2723 46.2715 91.1365 45.8681V45.8343H86.1787V45.9352C87.9444 46.9439 87.9444 48.2894 87.9444 50.1724V63.5916C87.9444 65.4743 87.9444 66.8193 86.1455 67.8622V67.9631H92.155V67.8622C90.3553 66.8193 90.3891 65.4743 90.3891 63.5916V50.5759ZM71.4064 54.7466V48.1551L73.6807 47.9191C75.7181 47.7174 77.8905 48.9284 77.8905 51.2491C77.8905 54.0068 74.733 54.7466 72.5268 54.7466H71.4064ZM71.4064 65.2726V56.9656L73.7825 56.8313C76.7704 56.663 79.9617 58.076 79.9617 61.338C79.9617 64.5328 77.1445 65.8107 74.3597 65.5418L71.4064 65.2726ZM67.9429 63.221C67.9429 64.7683 68.1469 67.2233 66.4487 67.8623V67.9631H72.0509C74.5972 67.9631 77.2801 68.0643 79.6562 66.9207C81.9311 65.8444 83.7307 63.6245 83.7307 61.0348C83.7307 57.7397 81.2517 55.7215 78.1961 55.0821C80.1316 54.2417 81.591 52.9638 81.591 50.7105C81.591 47.7174 78.9775 45.8344 74.4962 45.8344H66.4487V45.9352C68.1812 46.5741 67.9429 49.0292 67.9429 50.5422V63.221Z" fill="#005B6A"/>
<rect x="25.7167" y="18.2712" width="106.227" height="77.4578" rx="9" stroke="white" stroke-opacity="0.2" stroke-width="6" shape-rendering="crispEdges"/>
</g>
<defs>
<filter id="filter0_d_0_13" x="0.444113" y="0.422805" width="156.772" height="128.003" filterUnits="userSpaceOnUse" color-interpolation-filters="sRGB">
<feFlood flood-opacity="0" result="BackgroundImageFix"/>
<feColorMatrix in="SourceAlpha" type="matrix" values="0 0 0 0 0 0 0 0 0 0 0 0 0 0 0 0 0 0 127 0" result="hardAlpha"/>
<feOffset dy="7.42419"/>
<feGaussianBlur stdDeviation="11.1363"/>
<feComposite in2="hardAlpha" operator="out"/>
<feColorMatrix type="matrix" values="0 0 0 0 0.795833 0 0 0 0 0.295122 0 0 0 0 0.355207 0 0 0 0.3 0"/>
<feBlend mode="normal" in2="BackgroundImageFix" result="effect1_dropShadow_0_13"/>
<feBlend mode="normal" in="SourceGraphic" in2="effect1_dropShadow_0_13" result="shape"/>
</filter>
</defs>
</svg>
