<svg width="158" height="129" viewBox="0 0 158 129" fill="none" xmlns="http://www.w3.org/2000/svg">
<g filter="url(#filter0_d_0_12)">
<rect x="29.2323" y="21.4067" width="100.227" height="71.4578" rx="5.76117" fill="white"/>
<path fill-rule="evenodd" clip-rule="evenodd" d="M45.3927 48.7712C46.3432 48.6167 47.3184 48.6346 48.2735 48.7298C49.1589 48.9124 50.0522 49.1162 50.8647 49.5251C52.5088 50.3081 53.9082 51.5772 54.8407 53.1398C55.614 54.5837 56.1459 56.2034 56.0662 57.8579C56.0887 61.2542 53.9329 64.4903 50.8793 65.9342C48.8997 66.874 46.5969 67.0028 44.4815 66.4875C43.0506 66.0484 41.6703 65.3382 40.6277 64.2472C39.6346 63.3276 38.8849 62.1559 38.4091 60.8946C37.7885 59.3432 37.7324 57.6182 37.9961 55.9839C38.4787 53.5565 39.9813 51.3308 42.1079 50.0404C43.0978 49.3896 44.2357 49.0031 45.3927 48.7712ZM44.1223 53.1297C43.4063 53.2025 42.6242 53.4535 42.228 54.0987C41.7904 54.7167 41.7447 55.4896 41.7013 56.224C41.6978 56.2842 41.6942 56.3443 41.6905 56.4039C41.6815 56.5892 41.665 56.7741 41.6484 56.9592L41.6484 56.9592C41.615 57.3325 41.5815 57.7059 41.6108 58.0819C41.6326 58.3358 41.648 58.5905 41.6634 58.8453C41.7019 59.4818 41.7403 60.1186 41.879 60.7434C42.0507 61.5309 42.7611 62.1413 43.5444 62.2847C45.0043 62.5474 46.4914 62.5243 47.9697 62.5014L47.9701 62.5014C48.1053 62.4993 48.2405 62.4972 48.3756 62.4953C48.9805 62.4617 49.5853 62.4001 50.1835 62.3049C51.079 62.1884 51.8702 61.4603 52.0172 60.5642C52.2742 59.4653 52.3202 58.3317 52.2439 57.2104C52.1002 56.4913 51.5908 55.8427 50.8983 55.5795C50.5864 55.429 50.2404 55.43 49.901 55.4309C49.8411 55.431 49.7815 55.4312 49.7222 55.4305C49.0548 55.4313 48.3874 55.431 47.7201 55.4306H47.7193H47.7193C46.5511 55.4299 45.383 55.4293 44.2155 55.435C44.0812 55.4375 43.956 55.3916 43.8318 55.3462C43.7857 55.3294 43.7398 55.3126 43.6936 55.2983C43.6903 55.0474 43.6992 54.6722 44.037 54.6655C44.9166 54.6456 45.797 54.6515 46.6773 54.6573C47.8367 54.665 48.996 54.6727 50.1532 54.6218C50.0275 54.0393 49.6717 53.4311 49.059 53.2698C48.5057 53.1219 47.9334 53.0468 47.3644 52.9942C47.2022 52.9922 47.0396 52.9891 46.877 52.986H46.877C45.9553 52.9684 45.0295 52.9507 44.1223 53.1297ZM50.389 58.0225C50.0938 57.943 49.7403 58.0595 49.6371 58.3631C49.5723 58.7125 49.6761 59.0492 49.7793 59.3837C49.8226 59.5241 49.8658 59.6642 49.8963 59.8047C49.93 59.8243 49.9805 59.8534 50.0309 59.8825C50.0815 59.9117 50.132 59.9408 50.1657 59.9604C50.2812 59.8932 50.3991 59.8327 50.5214 59.7801C50.5346 59.4844 50.606 59.2001 50.6773 58.9159C50.709 58.7898 50.7406 58.6637 50.7672 58.5367C50.7122 58.3272 50.5741 58.1357 50.389 58.0225Z" fill="#01ACD7"/>
<path fill-rule="evenodd" clip-rule="evenodd" d="M67.5958 51.5627C66.7305 51.2244 65.7699 51.2625 64.8631 51.3745C62.9015 51.6769 61.18 53.1712 60.5987 55.0654C60.3349 55.8159 60.3406 56.6257 60.4101 57.4087C60.6447 59.4115 62.1541 61.1702 64.0697 61.7829C65.4276 62.1929 66.9942 62.2063 68.2478 61.4726C68.4115 61.3822 68.5602 61.2706 68.7089 61.1588L68.7089 61.1588C68.8477 61.0546 68.9866 60.9503 69.1377 60.8633L69.14 60.9673C69.1586 61.7929 69.1796 62.7266 68.5519 63.35C68.1311 63.863 67.4948 64.133 66.8517 64.2315C65.4613 64.4858 63.9912 64.012 62.9576 63.0621C62.7278 63.2957 62.4871 63.5189 62.2464 63.742L62.2464 63.742L62.2464 63.742L62.2464 63.742L62.2464 63.742C61.857 64.103 61.4676 64.4639 61.125 64.8689C62.2068 65.8905 63.5771 66.6275 65.0629 66.8236C66.515 67.0062 68.0772 66.9177 69.3711 66.1728C70.4687 65.5645 71.3328 64.5261 71.6717 63.3153C71.882 62.7119 71.8792 62.0673 71.8764 61.4367L71.8759 61.3304C71.8748 57.9912 71.8748 54.6531 71.8759 51.314C71.3501 51.3075 70.8242 51.3078 70.2984 51.3081C69.9186 51.3083 69.5388 51.3085 69.159 51.3061C69.1593 51.3978 69.1598 51.4896 69.1603 51.5813C69.162 51.8794 69.1636 52.1775 69.1568 52.4756C68.6888 52.0936 68.1715 51.7564 67.5958 51.5627ZM64.1494 54.4728C64.5995 54.074 65.1965 53.9217 65.7789 53.8354C66.9382 53.6596 68.2422 54.1894 68.8359 55.2255C69.0753 55.6453 69.0653 56.1199 69.0554 56.5899C69.052 56.7544 69.0485 56.9185 69.0558 57.0794C69.1535 58.0673 68.3825 58.9388 67.4993 59.2749C66.4321 59.6759 65.1157 59.7028 64.1842 58.9623C62.7882 57.9172 62.7601 55.5325 64.1494 54.4728ZM91.4386 51.3084C90.2783 51.3005 89.0685 51.6467 88.2324 52.4823C88.225 52.3755 88.2181 52.2689 88.2111 52.1624L88.2111 52.1622C88.1991 51.9783 88.1872 51.7949 88.173 51.6119C87.2595 51.6007 86.346 51.5974 85.4325 51.6119C85.4338 54.3765 85.4336 57.141 85.4334 59.9055C85.4333 61.9789 85.4331 64.0523 85.4336 66.1257C86.0755 66.167 86.719 66.1634 87.3622 66.1598C87.6614 66.1581 87.9605 66.1565 88.2594 66.1593C88.2803 64.8785 88.2756 63.5971 88.271 62.3156V62.3155V62.3154V62.3153V62.3152L88.271 62.3129L88.271 62.3105L88.271 62.3082L88.271 62.3058C88.2694 61.8713 88.2678 61.4367 88.2672 61.0021C90.2827 62.6006 93.4912 62.4247 95.3036 60.591C97.2765 58.6162 97.3898 55.0967 95.4899 53.0356C94.49 51.8886 92.9548 51.2546 91.4386 51.3084ZM88.3996 55.4664C88.6947 54.5803 89.597 54.0516 90.4735 53.878C91.3768 53.6954 92.3868 53.9228 93.0849 54.5366C94.2677 55.6097 94.2767 57.6719 93.1612 58.7955C92.0423 59.8764 90.0627 59.8562 88.9506 58.7753C88.477 58.3575 88.229 57.7033 88.2705 57.0783C88.2798 56.9135 88.2754 56.7463 88.271 56.579V56.579V56.579V56.5789V56.5789C88.261 56.2001 88.2509 55.8206 88.3996 55.4664ZM77.238 51.4461C78.8327 51.1258 80.5778 51.3184 81.966 52.2045C83.022 52.8407 83.8255 53.8724 84.1846 55.0497C84.6773 56.5966 84.4562 58.3664 83.5337 59.7128C82.6169 61.0693 81.0513 61.9005 79.4353 62.0562C78.4399 62.1234 77.4108 62.0898 76.4693 61.728C74.9094 61.2049 73.6009 59.9201 73.1408 58.3328C72.647 56.8453 72.8759 55.1426 73.7221 53.8253C74.5054 52.5932 75.8184 51.7519 77.238 51.4461ZM77.9056 53.8926C77.5084 54.0057 77.1369 54.2028 76.8115 54.4549C75.6848 55.3409 75.4098 57.0928 76.2122 58.2791C77.1291 59.7879 79.4947 60.0859 80.7359 58.8223C81.343 58.2656 81.6314 57.4345 81.5506 56.6201C81.6191 54.8144 79.6126 53.3594 77.9056 53.8926ZM103.956 51.3756C102.323 51.1616 100.554 51.389 99.1999 52.3848C98.4177 53.0054 97.7488 53.859 97.6164 54.8738C98.0063 54.9405 98.3931 55.0247 98.7799 55.1089C99.2837 55.2185 99.7875 55.3282 100.299 55.3992C100.52 54.5131 101.289 53.8086 102.193 53.6629C102.778 53.5621 103.386 53.5924 103.955 53.7649C104.452 53.9262 104.83 54.4694 104.612 54.987C104.207 55.356 103.655 55.4676 103.13 55.5739C103.062 55.5876 102.994 55.6013 102.928 55.6154C102.837 55.6284 102.746 55.6412 102.654 55.6541C101.32 55.8422 99.9334 56.0378 98.7981 56.8072C97.3942 57.7873 97.3886 60.0937 98.687 61.1646C99.7588 62.0842 101.268 62.1895 102.613 62.0114C103.543 61.8378 104.48 61.4357 105.074 60.6706C105.077 60.8593 105.077 61.0481 105.077 61.237V61.2376C105.077 61.4263 105.077 61.6151 105.08 61.8042C105.285 61.8039 105.49 61.8033 105.695 61.8026H105.695H105.695H105.695C106.345 61.8005 106.995 61.7984 107.646 61.8087C107.648 60.5433 107.648 59.2782 107.648 58.0133V58.0133V58.0132C107.647 57.0645 107.647 56.1159 107.648 55.1673C107.658 54.3978 107.376 53.6484 106.952 53.0144C106.263 52.0488 105.094 51.5615 103.956 51.3756ZM100.423 59.0419C100.275 58.6913 100.561 58.3452 100.847 58.1727C101.424 57.8552 102.074 57.7367 102.722 57.6185C103.504 57.476 104.283 57.3339 104.932 56.8442C104.926 56.998 104.931 57.159 104.936 57.3223C104.953 57.8735 104.97 58.4502 104.565 58.8616C103.782 59.6412 102.589 59.7846 101.535 59.7174C101.098 59.6916 100.522 59.5404 100.423 59.0419ZM108.775 51.6041C108.474 51.6047 108.172 51.6052 107.87 51.6052C108.666 53.2655 109.48 54.9175 110.294 56.5695C111.057 58.1197 111.821 59.67 112.57 61.2273C112.202 62.0354 111.802 62.8287 111.401 63.6219C110.978 64.4604 110.555 65.2989 110.17 66.1548C110.494 66.1534 110.818 66.1559 111.143 66.1584C111.864 66.164 112.586 66.1695 113.306 66.1324C115.671 61.2956 118.033 56.4588 120.393 51.6198C119.333 51.5929 118.273 51.5974 117.214 51.6153C116.197 53.8433 115.168 56.0668 114.133 58.2858C113.828 57.6282 113.52 56.972 113.212 56.3159C112.708 55.2442 112.204 54.1726 111.715 53.095C111.637 52.9195 111.55 52.7476 111.464 52.5756C111.306 52.2602 111.147 51.945 111.038 51.6086C110.284 51.6014 109.53 51.6027 108.775 51.6041Z" fill="#010101"/>
<rect x="26.2323" y="18.4067" width="106.227" height="77.4578" rx="9" stroke="white" stroke-opacity="0.2" stroke-width="6" shape-rendering="crispEdges"/>
</g>
<defs>
<filter id="filter0_d_0_12" x="0.959738" y="0.558303" width="156.772" height="128.003" filterUnits="userSpaceOnUse" color-interpolation-filters="sRGB">
<feFlood flood-opacity="0" result="BackgroundImageFix"/>
<feColorMatrix in="SourceAlpha" type="matrix" values="0 0 0 0 0 0 0 0 0 0 0 0 0 0 0 0 0 0 127 0" result="hardAlpha"/>
<feOffset dy="7.42419"/>
<feGaussianBlur stdDeviation="11.1363"/>
<feComposite in2="hardAlpha" operator="out"/>
<feColorMatrix type="matrix" values="0 0 0 0 0.795833 0 0 0 0 0.295122 0 0 0 0 0.355207 0 0 0 0.3 0"/>
<feBlend mode="normal" in2="BackgroundImageFix" result="effect1_dropShadow_0_12"/>
<feBlend mode="normal" in="SourceGraphic" in2="effect1_dropShadow_0_12" result="shape"/>
</filter>
</defs>
</svg>
