<svg width="158" height="129" viewBox="0 0 158 129" fill="none" xmlns="http://www.w3.org/2000/svg">
<g filter="url(#filter0_d_0_16)">
<rect x="29.0566" y="21.1356" width="100.227" height="71.4578" rx="5.76117" fill="#003D79"/>
<path fill-rule="evenodd" clip-rule="evenodd" d="M36.3064 58.9811C36.3064 57.6996 36.2838 56.6241 36.2159 55.6652H38.5689L38.6793 57.3127H38.7453C39.2786 56.4421 40.2539 55.4126 42.0731 55.4126C43.4931 55.4126 44.6022 56.2379 45.0672 57.4726H45.1129C45.4907 56.8551 45.9329 56.398 46.4427 56.0766C47.0422 55.6426 47.7302 55.4126 48.6175 55.4126C50.4139 55.4126 52.2318 56.6703 52.2318 60.2388V66.8022H49.5702V60.6511C49.5702 58.7988 48.9501 57.6996 47.642 57.6996C46.7088 57.6996 46.0204 58.387 45.7339 59.1878C45.6666 59.4615 45.6001 59.8048 45.6001 60.1227V66.8022H42.9376V60.3528C42.9376 58.7988 42.3396 57.6996 41.075 57.6996C40.0545 57.6996 39.3677 58.5242 39.123 59.3002C39.0114 59.5764 38.9666 59.8957 38.9666 60.2153V66.8022H36.3064V58.9811Z" fill="white"/>
<path fill-rule="evenodd" clip-rule="evenodd" d="M62.6017 64.1271C62.6017 65.1329 62.646 66.1147 62.757 66.8027H60.2939L60.1171 65.5681H60.0498C59.3846 66.4379 58.2534 67.0545 56.856 67.0545C54.6816 67.0545 53.4622 65.432 53.4622 63.7386C53.4622 60.9246 55.8791 59.5079 59.8723 59.5305V59.3468C59.8723 58.6147 59.5836 57.4034 57.6762 57.4034C56.6109 57.4034 55.5014 57.7467 54.7698 58.2262L54.2367 56.3981C55.0368 55.8939 56.4355 55.4131 58.1421 55.4131C61.604 55.4131 62.6017 57.6786 62.6017 60.1018V64.1271ZM59.9387 61.3602C58.0092 61.314 56.1685 61.7485 56.1685 63.4412C56.1685 64.5378 56.856 65.042 57.7214 65.042C58.807 65.042 59.6069 64.3099 59.8501 63.5097C59.9161 63.3039 59.9387 63.0743 59.9387 62.892V61.3602Z" fill="white"/>
<path fill-rule="evenodd" clip-rule="evenodd" d="M64.4881 58.9811C64.4881 57.6996 64.4637 56.6241 64.399 55.6652H66.7927L66.9266 57.3346H66.9921C67.4585 56.4666 68.6341 55.4126 70.4305 55.4126C72.3166 55.4126 74.2686 56.6703 74.2686 60.1931V66.8022H71.5405V60.5141C71.5405 58.9121 70.9638 57.6996 69.4774 57.6996C68.3904 57.6996 67.6364 58.5002 67.3473 59.3468C67.26 59.599 67.237 59.9428 67.237 60.2607V66.8022H64.4881V58.9811Z" fill="white"/>
<path fill-rule="evenodd" clip-rule="evenodd" d="M86.0977 51.1903V63.6684C86.0977 64.8117 86.1413 66.0489 86.1858 66.8027H83.7456L83.6364 65.042H83.5912C82.9475 66.2776 81.6368 67.0545 80.0635 67.0545C77.4915 67.0545 75.45 64.7907 75.45 61.3602C75.4274 57.632 77.6899 55.4131 80.2851 55.4131C81.7708 55.4131 82.8365 56.0543 83.3237 56.8782H83.3687V51.1903H86.0977ZM83.3686 60.3064C83.3686 60.0801 83.3458 59.8044 83.3031 59.5764C83.0587 58.4786 82.193 57.5861 80.9508 57.5861C79.1985 57.5861 78.2223 59.1879 78.2223 61.2691C78.2223 63.3039 79.1985 64.7907 80.9286 64.7907C82.0373 64.7907 83.0139 64.0134 83.2798 62.8016C83.3458 62.5489 83.3686 62.2748 83.3686 61.9765V60.3064Z" fill="white"/>
<path fill-rule="evenodd" clip-rule="evenodd" d="M88.0256 66.8021H90.779V55.6658H88.0256V66.8021Z" fill="white"/>
<path fill-rule="evenodd" clip-rule="evenodd" d="M92.7071 59.2554C92.7071 57.7466 92.684 56.6702 92.6178 55.6649H94.9918L95.0786 57.7911H95.1706C95.7021 56.2131 96.9668 55.6649 98.1198 55.6649C98.3854 55.6649 98.5405 55.6181 98.763 55.6649V58.1356C98.5405 58.0899 98.297 58.0443 97.9642 58.0443C96.6557 58.0443 95.7677 58.9125 95.524 60.1695C95.4808 60.4212 95.436 60.7198 95.436 61.0415V66.8026H92.7071V59.2554Z" fill="white"/>
<path fill-rule="evenodd" clip-rule="evenodd" d="M100.027 66.8021H102.777V55.6658H100.027V66.8021Z" fill="white"/>
<path fill-rule="evenodd" clip-rule="evenodd" d="M99.3769 42.2008C97.7254 43.1867 93.8302 45.4901 92.3761 46.3478V46.3478C91.4898 46.8133 89.4373 47.0166 88.2764 45.4027V45.4027C88.2556 45.3735 86.7323 43.4112 86.6701 43.3373V43.3373C86.6265 43.2851 85.6417 41.7792 83.4475 41.7321V41.7321C83.1233 41.7241 81.5113 41.7153 79.9385 42.6369V42.6369C77.848 43.8683 72.9861 46.7341 72.9861 46.7341V46.7341C72.9847 46.7341 72.9847 46.7366 72.9822 46.7366V46.7366C70.9837 47.9156 69.4265 48.8334 69.4265 48.8334V48.8334L71.2663 51.1631C72.127 52.2649 74.0678 53.1173 75.751 52.1211V52.1211C75.751 52.1211 81.9701 48.4081 81.9929 48.3973V48.3973C84.6825 46.8765 86.7579 46.8765 88.1353 47.4424V47.4424C89.3717 47.9811 90.4474 49.3232 90.4474 49.3232V49.3232C90.4474 49.3232 91.8531 51.1193 92.1011 51.4335V51.4335C92.901 52.4486 94.2249 52.0498 94.2249 52.0498V52.0498C94.2249 52.0498 94.7155 51.9924 95.455 51.5398V51.5398C95.455 51.5398 101.479 47.9386 101.483 47.9375V47.9375C103.396 46.7804 105.15 46.5644 106.047 46.6494V46.6494C108.855 46.9126 109.727 48.9353 110.945 50.3464V50.3464C111.662 51.1764 112.309 51.6477 113.299 51.6239V51.6239C113.949 51.6097 114.683 51.2032 114.792 51.1298V51.1298L122.005 46.8378C122.005 46.8378 121.265 45.6884 119.749 43.9002V43.9002C118.393 42.3048 116.952 43.0266 115.803 43.6133V43.6133C115.32 43.8594 113.571 45.0589 111.838 45.8957V45.8957C110.604 46.4916 108.83 46.3124 107.859 45.0743V45.0743C107.8 44.999 106.228 43.0364 106.063 42.7949V42.7949C105.428 41.9754 104.19 41.2414 102.603 41.2414V41.2414C101.638 41.2414 100.543 41.5127 99.3769 42.2008" fill="url(#paint0_linear_0_16)"/>
<rect x="26.0566" y="18.1356" width="106.227" height="77.4578" rx="9" stroke="white" stroke-opacity="0.2" stroke-width="6" shape-rendering="crispEdges"/>
</g>
<defs>
<filter id="filter0_d_0_16" x="0.784079" y="0.287215" width="156.772" height="128.003" filterUnits="userSpaceOnUse" color-interpolation-filters="sRGB">
<feFlood flood-opacity="0" result="BackgroundImageFix"/>
<feColorMatrix in="SourceAlpha" type="matrix" values="0 0 0 0 0 0 0 0 0 0 0 0 0 0 0 0 0 0 127 0" result="hardAlpha"/>
<feOffset dy="7.42419"/>
<feGaussianBlur stdDeviation="11.1363"/>
<feComposite in2="hardAlpha" operator="out"/>
<feColorMatrix type="matrix" values="0 0 0 0 0.795833 0 0 0 0 0.295122 0 0 0 0 0.355207 0 0 0 0.3 0"/>
<feBlend mode="normal" in2="BackgroundImageFix" result="effect1_dropShadow_0_16"/>
<feBlend mode="normal" in="SourceGraphic" in2="effect1_dropShadow_0_16" result="shape"/>
</filter>
<linearGradient id="paint0_linear_0_16" x1="69.4265" y1="52.5623" x2="122.005" y2="52.5623" gradientUnits="userSpaceOnUse">
<stop stop-color="#FFCA06"/>
<stop offset="0.330844" stop-color="#FBAA18"/>
<stop offset="0.694742" stop-color="#FFC907"/>
<stop offset="1" stop-color="#FAA619"/>
</linearGradient>
</defs>
</svg>
