<svg width="158" height="129" viewBox="0 0 158 129" fill="none" xmlns="http://www.w3.org/2000/svg">
<g filter="url(#filter0_d_0_17)">
<rect x="29.1151" y="21.1356" width="100.227" height="71.4578" rx="5.76117" fill="white"/>
<mask id="mask0_0_17" style="mask-type:luminance" maskUnits="userSpaceOnUse" x="29" y="21" width="101" height="72">
<rect x="29.1151" y="21.1356" width="100.227" height="71.4578" rx="5.76117" fill="white"/>
</mask>
<g mask="url(#mask0_0_17)">
<path fill-rule="evenodd" clip-rule="evenodd" d="M64.9439 41.4144L64.9103 42.0647L77.5143 56.6921L77.9671 56.7641L78.0241 56.7357L78.2453 56.3317L72.8699 38.5324L71.9576 37.9241L64.9439 41.4144Z" fill="#0096B8"/>
<path fill-rule="evenodd" clip-rule="evenodd" d="M77.5142 56.6922L77.9664 56.7641L68.6716 42.7748L64.9102 42.0647L77.5142 56.6922Z" fill="#005675"/>
<path fill-rule="evenodd" clip-rule="evenodd" d="M71.9577 37.924L68.7445 41.6662L70.0567 42.2337L72.87 38.5329V38.5323L71.9577 37.924Z" fill="#0BBBEF"/>
<path fill-rule="evenodd" clip-rule="evenodd" d="M70.0554 42.2338L78.0241 56.7357L78.2454 56.3304L72.8706 38.5336L70.0554 42.2338Z" fill="#007290"/>
<path fill-rule="evenodd" clip-rule="evenodd" d="M84.4608 37.9621L79.0703 62.0329L79.2604 62.4846L79.3507 62.5247L79.9612 62.3666L93.3361 42.3238L93.3214 41.2781L85.1708 37.5711L84.4608 37.9621Z" fill="#81B73E"/>
<path fill-rule="evenodd" clip-rule="evenodd" d="M87.9068 42.7816L79.3518 62.5247L79.9607 62.3665L93.3363 42.3237L87.9068 42.7816Z" fill="#69931D"/>
<path fill-rule="evenodd" clip-rule="evenodd" d="M79.0699 62.0316L79.2606 62.4833L86.3681 41.9437L84.4605 37.9627L79.0699 62.0316Z" fill="#277933"/>
<path fill-rule="evenodd" clip-rule="evenodd" d="M93.3206 41.2788L87.5988 41.3519L87.9071 42.7821L93.3361 42.3238L93.3213 41.2788H93.3206Z" fill="#AECC53"/>
<path fill-rule="evenodd" clip-rule="evenodd" d="M84.4608 37.9621L86.3665 41.9424L87.5988 41.3521L85.1707 37.572L84.4608 37.9621Z" fill="#69931D"/>
<path fill-rule="evenodd" clip-rule="evenodd" d="M83.4807 31.1397L73.0471 31.2508L72.7217 31.8687L78.4867 48.3067L78.829 48.5346L78.8391 48.5361L79.1566 48.3546L84.1551 31.8314L83.4807 31.1397Z" fill="#E4032E"/>
<path fill-rule="evenodd" clip-rule="evenodd" d="M72.7217 31.8687L78.4867 48.3067L78.8272 48.5349L76.7647 33.8589L72.7217 31.8681V31.8687Z" fill="#791B15"/>
<path fill-rule="evenodd" clip-rule="evenodd" d="M78.7262 33.8615L78.8389 48.5359L79.1564 48.3532L84.1545 31.8315L78.7262 33.8615Z" fill="#B51227"/>
<path fill-rule="evenodd" clip-rule="evenodd" d="M91.6831 75.4972C91.6914 75.3249 91.7013 75.0499 91.7096 74.6743V67.4452L91.6872 66.744C91.6818 66.5953 91.675 66.4941 91.6678 66.4399C91.6605 66.3835 91.6491 66.3354 91.6335 66.2915C91.5814 66.1135 91.4672 65.9875 91.2956 65.911C91.1368 65.841 90.9016 65.8073 90.5972 65.8051V65.5598L94.5329 65.5584C95.1054 65.5609 95.6219 65.5993 96.0831 65.6779C96.5446 65.7544 96.916 65.8612 97.2004 65.9975C98.0227 66.4072 98.4294 67.0965 98.4247 68.0754C98.4348 69.4771 97.5563 70.3708 95.7377 70.6016L95.4327 70.6533C95.8417 70.6691 96.3943 70.8109 96.652 70.8741C96.9074 70.9359 97.1576 71.0339 97.4034 71.1678C98.3681 71.6766 98.8436 72.4892 98.834 73.6151C98.8387 74.9805 98.2041 75.8674 96.9155 76.2872C96.6344 76.3718 96.2809 76.438 95.8545 76.4867C95.426 76.5352 94.9619 76.5597 94.4599 76.5608H90.5972V76.3144C91.0524 76.3084 91.3652 76.2355 91.5037 76.0645C91.5611 76.0071 91.6024 75.9428 91.6294 75.8696C91.6571 75.7956 91.674 75.6682 91.6831 75.4972ZM92.8946 65.8974V70.4845H94.4306C96.2165 70.4734 97.1415 69.6956 97.1511 68.1375C97.1638 66.6245 96.1895 65.8862 94.299 65.8974H92.8946ZM97.4592 73.4912C97.4483 72.423 97.0802 71.6665 96.3452 71.2432C96.1217 71.1248 95.8386 71.0328 95.4978 70.9672C95.1581 70.9021 94.7822 70.8695 94.3719 70.8684H92.8946V76.2232H94.3719C95.4423 76.2278 96.2248 76.0182 96.7067 75.5794C96.9505 75.3676 97.136 75.0826 97.2648 74.7236C97.393 74.3648 97.4568 73.9526 97.4592 73.4912Z" fill="black"/>
<path fill-rule="evenodd" clip-rule="evenodd" d="M104.467 76.2469C104.387 76.0814 104.331 75.8843 104.308 75.3798L104.3 75.2315L104.206 75.3442C104.093 75.4757 103.982 75.5927 103.875 75.6907C103.766 75.7895 103.64 75.8911 103.499 75.9934C103.188 76.2333 102.889 76.402 102.602 76.5C102.315 76.598 101.991 76.6454 101.631 76.6419C101.003 76.6454 100.521 76.4889 100.177 76.1815C99.9846 76.0002 99.8328 75.7718 99.7217 75.4947C99.6122 75.2179 99.5553 74.9209 99.553 74.601C99.5597 73.4237 100.249 72.665 101.658 72.3283C102.031 72.2373 102.425 72.1627 102.84 72.1053C103.255 72.0468 103.726 71.9986 104.253 71.9613L104.308 70.9348C104.308 70.5836 104.292 70.2986 104.259 70.0824C104.227 69.8633 104.172 69.6719 104.096 69.5108C103.887 69.0831 103.461 68.8784 102.845 68.8784C101.856 68.8724 101.321 69.3668 101.265 70.347C101.26 70.5036 101.246 70.6141 101.226 70.6791C101.207 70.7423 101.175 70.7883 101.13 70.8221C101.031 70.892 100.874 70.9315 100.65 70.9348C100.165 70.9416 99.9836 70.7908 99.9916 70.5362C99.9947 70.2705 100.079 70.013 100.248 69.765C100.417 69.5162 100.653 69.2993 100.957 69.1158C101.504 68.7973 102.205 68.635 103.064 68.6315C104.005 68.635 104.636 68.8577 104.98 69.2857C105.12 69.4648 105.223 69.6874 105.29 69.9567C105.357 70.2245 105.391 70.5656 105.391 70.9797L105.389 71.0665L105.382 71.4683L105.361 72.5289L105.346 73.9863L105.332 74.6922C105.333 75.0243 105.346 75.2775 105.369 75.5611C105.39 75.8369 105.484 76.1453 105.695 76.2264C105.914 76.3119 106.126 76.3457 106.528 76.3481C106.823 76.3427 107.051 76.3065 107.205 76.2379C107.38 76.1603 107.489 75.9934 107.536 75.7571C107.581 75.5274 107.6 75.1762 107.596 74.7069V70.5926C107.606 70.0321 107.544 69.6382 107.392 69.4321C107.243 69.2318 106.966 69.1449 106.586 69.1495V68.9299L108.679 68.7712V70.5194L108.788 70.3146C109.097 69.737 109.449 69.3273 109.84 69.082C110.231 68.8365 110.721 68.7137 111.312 68.7208C112.2 68.7072 112.817 69.0189 113.179 69.6425C113.312 69.8519 113.408 70.1029 113.465 70.3979C113.523 70.6928 113.552 71.069 113.55 71.5279V74.7069C113.545 75.1809 113.564 75.5342 113.607 75.7639C113.652 76.0002 113.758 76.1657 113.935 76.2411C114.081 76.3054 114.421 76.3391 114.711 76.3468C114.983 76.3391 115.193 76.3029 115.337 76.2379C115.508 76.1589 115.612 75.9923 115.656 75.7571C115.699 75.5266 115.717 75.1762 115.712 74.7069V67.2326C115.717 66.8038 115.7 66.4864 115.659 66.2814C115.616 66.0672 115.511 65.921 115.339 65.8568C115.19 65.8018 114.966 65.7759 114.673 65.7746V65.5565L116.849 65.4395C116.822 65.9469 116.802 66.4646 116.787 66.9949C116.773 67.5475 116.766 68.0304 116.766 68.4437V73.465L119.163 70.7096C119.502 70.3157 119.688 69.9847 119.691 69.7193C119.708 69.3499 119.353 69.1833 118.769 69.1528V68.9345H121.886V69.1561C121.698 69.1787 121.536 69.2149 121.397 69.2644C121.246 69.3183 121.092 69.3959 120.934 69.4961C120.774 69.5973 120.639 69.691 120.531 69.7754C120.421 69.8619 120.29 69.9858 120.141 70.1456C119.991 70.3057 119.773 70.5477 119.487 70.873L118.696 71.7667L120.768 75.1855C121.004 75.5905 121.222 75.8764 121.422 76.0383C121.612 76.1941 121.856 76.294 122.149 76.3413V76.5643H120.254C120.202 76.454 120.13 76.3097 120.039 76.1331L119.738 75.5557L119.507 75.121L117.974 72.5006L116.769 73.9156L116.766 74.7069C116.76 75.1762 116.779 75.5274 116.822 75.7571C116.867 75.9934 116.972 76.1589 117.146 76.2379C117.298 76.3065 117.524 76.3427 117.818 76.3481V76.5643H111.414V76.3481C111.848 76.3356 112.146 76.2616 112.265 76.0947C112.313 76.0307 112.349 75.9575 112.375 75.8753C112.4 75.7931 112.416 75.6861 112.423 75.5557C112.432 75.4531 112.441 75.3044 112.45 75.1098C112.461 74.9141 112.466 74.7799 112.467 74.708V71.6202C112.47 70.8594 112.392 70.2956 112.228 69.9373C111.978 69.3736 111.527 69.091 110.888 69.0886C110.175 69.0864 109.607 69.4422 109.185 70.1456C109.027 70.4116 108.903 70.7143 108.814 71.0518C108.726 71.3894 108.68 71.7228 108.679 72.0492V74.7069C108.674 75.1809 108.692 75.5342 108.736 75.7639C108.781 76.0002 108.887 76.1657 109.064 76.2411C109.218 76.3087 109.447 76.3427 109.747 76.3481V76.5643H106.597C106.318 76.5743 105.785 76.589 105.521 76.5855C105.244 76.5812 105.111 76.5507 104.859 76.5305C104.636 76.4616 104.541 76.4009 104.467 76.2469ZM100.753 74.5547C100.758 75.0559 100.874 75.4621 101.106 75.7683C101.338 76.0767 101.652 76.2354 102.04 76.2422C102.432 76.2368 102.802 76.1295 103.148 75.9226C103.493 75.7144 103.766 75.4362 103.963 75.0918C104.083 74.8722 104.171 74.5899 104.226 74.2463C104.281 73.9063 104.308 73.4822 104.308 72.9745V72.1864C103.606 72.2507 103.104 72.3204 102.74 72.4015C102.372 72.4826 102.048 72.5986 101.765 72.7516C101.095 73.1005 100.758 73.7062 100.753 74.5547Z" fill="black"/>
<path fill-rule="evenodd" clip-rule="evenodd" d="M39.1272 71.9299V74.6665C39.1217 75.1053 39.1459 75.4317 39.1991 75.6446C39.2531 75.8572 39.3688 75.9979 39.5482 76.0665C39.7267 76.1351 40.0021 76.1749 40.3725 76.1814V76.5642H36.2743V76.1814C36.6231 76.1749 36.8814 76.1351 37.0498 76.0665C37.2172 75.9979 37.3254 75.8572 37.375 75.6446C37.4241 75.4317 37.4466 75.1053 37.4415 74.6665V67.4712C37.4461 67.0321 37.4246 66.7057 37.3771 66.4928C37.3293 66.2789 37.2247 66.1373 37.0649 66.0663C36.9045 65.9952 36.6582 65.9538 36.3259 65.9413V65.5586H40.2295C41.5453 65.5529 42.5095 65.7962 43.1215 66.2889C43.7338 66.7822 44.0364 67.5578 44.0292 68.6194C44.0338 70.1098 43.4802 71.0855 42.3691 71.5471C42.0795 71.6653 41.7099 71.7587 41.2611 71.8262C40.8113 71.8937 40.312 71.9288 39.7625 71.9299H39.1272ZM39.1271 71.5033H39.8019C40.6125 71.4998 41.2087 71.2997 41.5915 70.8998C41.7994 70.669 41.9569 70.3652 42.0649 69.9903C42.1718 69.6166 42.2263 69.1889 42.2268 68.7071C42.2227 66.8949 41.4656 65.9876 39.9577 65.9851H39.1271V71.5033Z" fill="black"/>
<path fill-rule="evenodd" clip-rule="evenodd" d="M50.6268 72.3914H45.859C45.8637 72.9249 45.8935 73.3727 45.948 73.7342C46.0023 74.0947 46.0897 74.4243 46.2096 74.7235C46.6057 75.6918 47.2175 76.1758 48.0454 76.1758C48.5141 76.1725 48.939 76.0282 49.3208 75.7413C49.7018 75.4544 50.0192 75.0412 50.2717 74.5043L50.6094 74.7385C50.2775 75.4318 49.8718 75.9406 49.3929 76.2659C48.9141 76.5901 48.3301 76.7513 47.64 76.7477C46.5548 76.733 45.5564 76.3693 44.9314 75.6569C44.3059 74.9443 43.9872 73.9673 43.9747 72.7289C43.9872 71.4805 44.2955 70.4935 44.8995 69.7661C45.5029 69.0393 46.4666 68.6677 47.5053 68.6519C48.1959 68.6532 48.8629 68.8185 49.3364 69.1473C49.8098 69.4748 50.1588 69.9555 50.3839 70.5882C50.4573 70.7975 50.5134 71.0371 50.551 71.3088C50.5889 71.5788 50.6143 71.94 50.6268 72.3914ZM45.8723 71.967H48.855C48.8428 71.5143 48.82 71.1498 48.7857 70.874C48.7522 70.5969 48.6982 70.3505 48.6258 70.1333C48.3736 69.3635 47.9868 68.9818 47.4652 68.9884C46.8799 68.9943 46.4436 69.4242 46.1558 70.2795C46.0821 70.5014 46.0234 70.7444 45.9782 71.008C45.9336 71.2715 45.898 71.591 45.8723 71.967Z" fill="black"/>
<path fill-rule="evenodd" clip-rule="evenodd" d="M50.9319 68.8613L53.5766 68.6699C53.5909 68.947 53.6013 69.1787 53.6086 69.3668C53.6158 69.556 53.6192 69.7212 53.6192 69.8655V70.3079C54.1938 69.2059 54.8879 68.6498 55.7013 68.6408C56.0527 68.6476 56.3384 68.7554 56.5575 68.9625C56.7771 69.1708 56.8902 69.4376 56.8967 69.7621C56.8918 70.0321 56.7968 70.2482 56.612 70.4113C56.4275 70.5733 56.1845 70.6579 55.8842 70.6612C55.523 70.6734 55.3026 70.5172 55.2229 70.1897C55.1708 69.9869 55.117 69.8497 55.061 69.7765C55.0054 69.7033 54.9237 69.6695 54.8147 69.673H54.7869C54.51 69.6975 54.2476 69.9284 53.9987 70.3675C53.8865 70.5858 53.8022 70.8267 53.7459 71.091C53.6896 71.3556 53.6615 71.6608 53.6615 72.0054V74.735C53.6558 75.1708 53.6763 75.4915 53.722 75.6986C53.7674 75.9044 53.8712 76.0395 54.0321 76.104C54.1938 76.1669 54.4448 76.2028 54.7869 76.2107V76.5643H50.8759V76.2107C51.1946 76.2118 51.431 76.1794 51.5841 76.113C51.7383 76.0465 51.8375 75.908 51.8831 75.6986C51.9293 75.4868 51.9496 75.1662 51.9454 74.735V70.6468C51.9579 70.0386 51.9003 69.6436 51.771 69.4612C51.6418 69.2789 51.3622 69.1967 50.9319 69.216V68.8613Z" fill="black"/>
<path fill-rule="evenodd" clip-rule="evenodd" d="M60.039 68.6699L60.0533 70.1309C60.623 69.1474 61.439 68.6508 62.5013 68.6408C63.5815 68.634 64.2477 69.1495 64.4987 70.1908C64.8039 69.6537 65.1533 69.2609 65.5449 69.0121C65.9366 68.7611 66.3944 68.6372 66.9181 68.6408C67.7461 68.6451 68.3558 68.9312 68.7474 69.4961C68.9 69.7111 69.0095 69.9722 69.0742 70.282C69.1396 70.5923 69.1712 70.9944 69.1694 71.4887V74.735C69.1645 75.1661 69.1852 75.4868 69.2309 75.6973C69.2766 75.9079 69.3765 76.0465 69.5297 76.1129C69.6838 76.1794 69.92 76.2117 70.2387 76.2096V76.5643H66.4258V76.2096C66.7308 76.2117 66.9571 76.1794 67.1048 76.1129C67.2527 76.0465 67.349 75.9079 67.3926 75.6973C67.4378 75.4868 67.4575 75.1661 67.4533 74.735V71.5032C67.4567 70.7279 67.3653 70.1682 67.1808 69.8249C66.9958 69.4806 66.6973 69.3126 66.2851 69.3194C65.7904 69.3093 65.3728 69.5796 65.0334 70.1309C64.7406 70.5904 64.5947 71.088 64.5968 71.6216V74.735C64.5927 75.1661 64.6126 75.4868 64.6573 75.6973C64.7024 75.9079 64.7998 76.0465 64.9493 76.1129C65.0993 76.1794 65.3285 76.2117 65.6383 76.2096V76.5643H61.8677V76.2096C62.1724 76.2117 62.399 76.1794 62.5469 76.1129C62.6946 76.0465 62.7907 75.9079 62.8345 75.6973C62.8792 75.4868 62.8997 75.1661 62.8945 74.735V71.4887C62.9017 70.0274 62.522 69.3047 61.7551 69.3194C61.278 69.3374 60.8778 69.575 60.556 70.031C60.2334 70.488 60.0657 71.0575 60.0533 71.7394V74.735C60.0488 75.1708 60.0686 75.4947 60.1132 75.7043C60.1576 75.9145 60.2534 76.052 60.401 76.1162C60.549 76.1804 60.775 76.2117 61.0803 76.2096V76.5643H57.2673V76.2096C57.5866 76.2117 57.822 76.1804 57.9761 76.1162C58.1295 76.052 58.2295 75.9145 58.2751 75.7043C58.3211 75.4947 58.3416 75.1708 58.3364 74.735V70.6331C58.3514 70.0321 58.2938 69.6436 58.1641 69.4659C58.0348 69.287 57.7454 69.2048 57.2959 69.216V68.8613L60.039 68.6699Z" fill="black"/>
<path fill-rule="evenodd" clip-rule="evenodd" d="M80.241 69.3454V74.2737C80.2405 74.5943 80.2519 74.86 80.2745 75.0705C80.2971 75.2809 80.3329 75.4576 80.3817 75.6016C80.4408 75.7662 80.5332 75.8977 80.6573 75.9971C80.7821 76.0948 80.9202 76.1455 81.0705 76.1476C81.3713 76.1433 81.6994 75.99 82.056 75.6908L82.2527 76.0586C81.6877 76.5562 81.0456 76.8018 80.3256 76.7971C79.5491 76.7849 79.0196 76.5135 78.7354 75.9857C78.6798 75.8686 78.6365 75.7358 78.6056 75.5849C78.5755 75.4352 78.5537 75.2338 78.5418 74.9782C78.5298 74.7236 78.5239 74.3804 78.5244 73.9492V69.3454H77.7227V68.903C78.0294 68.8905 78.2887 68.823 78.5018 68.7002C78.7151 68.5766 78.9007 68.3842 79.0596 68.1207C79.1839 67.9203 79.2867 67.6974 79.3669 67.4532C79.4476 67.2087 79.5184 66.9049 79.5799 66.5412L80.2836 66.4683C80.2742 66.6629 80.2656 66.8611 80.2597 67.0625C80.2537 67.2629 80.2488 67.5049 80.2459 67.7872C80.2425 68.0698 80.241 68.4324 80.241 68.8725H81.9436V69.3454H80.241Z" fill="black"/>
<path fill-rule="evenodd" clip-rule="evenodd" d="M77.7154 76.2524V76.5641C77.3041 76.5924 77.1377 76.5924 76.705 76.5924C76.3617 76.5924 76.0061 76.5865 75.711 76.4708C75.5285 76.3986 75.4268 76.3368 75.2905 76.1871C75.1955 76.0284 75.1351 76.0192 75.1047 75.5792C74.7413 75.9911 74.3635 76.2927 73.9708 76.4876C73.577 76.6812 73.1535 76.777 72.6993 76.7748C72.0239 76.7669 71.4958 76.572 71.1142 76.1882C70.733 75.8044 70.5396 75.2765 70.5324 74.6055C70.53 73.3391 71.2804 72.5522 72.7831 72.2448C73.461 72.1065 74.2298 72.0132 75.0907 71.9636V71.0046C75.0977 70.2366 75.0201 69.7045 74.8587 69.4083C74.6964 69.1121 74.4081 68.9705 73.9933 68.9842C73.5524 68.9738 73.2383 69.1415 73.0507 69.485C72.9827 69.6043 72.9326 69.7393 72.9012 69.8936C72.8701 70.0466 72.8446 70.2592 72.8257 70.5328C72.8145 70.7963 72.7418 70.9831 72.6074 71.0936C72.4732 71.2049 72.2599 71.2588 71.9674 71.2567C71.3154 71.2512 70.9873 71.0247 70.9827 70.5777C70.9847 70.3167 71.0618 70.0668 71.2134 69.8305C71.3644 69.5928 71.5786 69.3846 71.8552 69.2047C72.4408 68.8265 73.2101 68.6395 74.1626 68.6442C75.1307 68.6395 75.8247 68.841 76.2444 69.2496C76.4336 69.4366 76.5724 69.6751 76.6612 69.9644C76.7502 70.2549 76.7938 70.6265 76.7928 71.08L76.7785 72.3632L76.7647 73.6465C76.7533 74.0676 76.7481 74.333 76.7507 74.4433C76.7455 74.976 76.7616 75.3642 76.7985 75.6086C76.8356 75.8539 76.8761 75.962 77.0292 76.0948C77.2978 76.256 77.5283 76.2514 77.7154 76.2524ZM75.0906 73.4404V72.3047C74.0833 72.3758 73.3688 72.5712 72.9468 72.89C72.5256 73.2096 72.3205 73.7072 72.3332 74.3839C72.3374 74.915 72.4412 75.3361 72.6447 75.6478C72.8474 75.9598 73.1238 76.1185 73.4726 76.125C73.7589 76.1229 74.0231 76.0363 74.2658 75.8651C74.5082 75.6952 74.6984 75.4565 74.8373 75.1516C74.9276 74.9648 74.9925 74.7373 75.033 74.4669C75.0722 74.1969 75.0916 73.8547 75.0906 73.4404Z" fill="black"/>
<path fill-rule="evenodd" clip-rule="evenodd" d="M89.8289 76.2524V76.5641C89.4172 76.5925 89.2511 76.5935 88.8185 76.5935C88.4748 76.5935 88.12 76.5878 87.8242 76.4719C87.6417 76.4 87.5402 76.339 87.4042 76.1871C87.309 76.0295 87.2482 76.0202 87.2181 75.5803C86.8548 75.9911 86.4769 76.2938 86.0839 76.4887C85.6905 76.6812 85.2666 76.7781 84.8124 76.7759C84.1371 76.7678 83.6092 76.572 83.2277 76.1893C82.8464 75.8055 82.653 75.2776 82.6455 74.6066C82.6434 73.3402 83.3938 72.5535 84.8965 72.2462C85.5744 72.1076 86.3432 72.0143 87.2039 71.9647V71.0057C87.2109 70.238 87.1333 69.7056 86.9718 69.4083C86.8099 69.1121 86.5213 68.9716 86.1065 68.9853C85.6658 68.9752 85.3515 69.1429 85.1639 69.4859C85.0959 69.6054 85.0458 69.7404 85.0146 69.8947C84.9835 70.0477 84.958 70.2603 84.9393 70.5339C84.9279 70.7963 84.8553 70.9831 84.7206 71.0947C84.5866 71.206 84.3733 71.2599 84.0805 71.2578C83.4288 71.2523 83.1007 71.0261 83.0958 70.5791C83.0979 70.3178 83.175 70.0679 83.3266 69.8316C83.4776 69.5942 83.692 69.3857 83.9684 69.2068C84.5542 68.8276 85.3235 68.6406 86.2757 68.6453C87.2438 68.6406 87.9381 68.8421 88.3578 69.2507C88.547 69.4377 88.6858 69.6764 88.7743 69.9655C88.8631 70.256 88.9072 70.6276 88.9059 71.08L88.8919 72.3643L88.8782 73.6476C88.8667 74.0684 88.8616 74.3341 88.8639 74.4444C88.859 74.9768 88.875 75.3653 88.9116 75.6097C88.949 75.855 88.9892 75.9634 89.1426 76.0959C89.411 76.2571 89.6417 76.2514 89.8289 76.2524ZM87.2038 73.4418V72.3047C86.1965 72.3768 85.4823 72.5726 85.0603 72.8911C84.638 73.2109 84.4337 73.7083 84.4464 74.385C84.4509 74.9164 84.5547 75.3372 84.7579 75.6489C84.9609 75.9609 85.2373 76.1196 85.5858 76.1261C85.8724 76.124 86.1366 76.0374 86.3792 75.8662C86.6214 75.6963 86.8119 75.4576 86.9502 75.1527C87.0411 74.9657 87.106 74.7384 87.1459 74.468C87.1856 74.198 87.2051 73.8558 87.2038 73.4418Z" fill="black"/>
</g>
<rect x="26.1151" y="18.1356" width="106.227" height="77.4578" rx="9" stroke="white" stroke-opacity="0.2" stroke-width="6" shape-rendering="crispEdges"/>
</g>
<defs>
<filter id="filter0_d_0_17" x="0.84255" y="0.287215" width="156.772" height="128.003" filterUnits="userSpaceOnUse" color-interpolation-filters="sRGB">
<feFlood flood-opacity="0" result="BackgroundImageFix"/>
<feColorMatrix in="SourceAlpha" type="matrix" values="0 0 0 0 0 0 0 0 0 0 0 0 0 0 0 0 0 0 127 0" result="hardAlpha"/>
<feOffset dy="7.42419"/>
<feGaussianBlur stdDeviation="11.1363"/>
<feComposite in2="hardAlpha" operator="out"/>
<feColorMatrix type="matrix" values="0 0 0 0 0.795833 0 0 0 0 0.295122 0 0 0 0 0.355207 0 0 0 0.3 0"/>
<feBlend mode="normal" in2="BackgroundImageFix" result="effect1_dropShadow_0_17"/>
<feBlend mode="normal" in="SourceGraphic" in2="effect1_dropShadow_0_17" result="shape"/>
</filter>
</defs>
</svg>
