<svg width="262" height="23" viewBox="0 0 262 23" fill="none" xmlns="http://www.w3.org/2000/svg">
<path d="M113.72 12.89C113.72 12.05 113.885 11.315 114.215 10.685C114.555 10.045 115.02 9.555 115.61 9.215C116.21 8.865 116.885 8.69 117.635 8.69C118.415 8.69 119.085 8.87 119.645 9.23C120.215 9.59 120.625 10.05 120.875 10.61V8.81H121.925V17H120.875V15.185C120.615 15.745 120.2 16.21 119.63 16.58C119.07 16.94 118.4 17.12 117.62 17.12C116.88 17.12 116.21 16.945 115.61 16.595C115.02 16.245 114.555 15.75 114.215 15.11C113.885 14.47 113.72 13.73 113.72 12.89ZM120.875 12.905C120.875 12.245 120.74 11.665 120.47 11.165C120.2 10.665 119.83 10.28 119.36 10.01C118.9 9.74 118.39 9.605 117.83 9.605C117.25 9.605 116.73 9.735 116.27 9.995C115.81 10.255 115.445 10.635 115.175 11.135C114.915 11.625 114.785 12.21 114.785 12.89C114.785 13.56 114.915 14.15 115.175 14.66C115.445 15.16 115.81 15.545 116.27 15.815C116.73 16.075 117.25 16.205 117.83 16.205C118.39 16.205 118.9 16.07 119.36 15.8C119.83 15.53 120.2 15.145 120.47 14.645C120.74 14.145 120.875 13.565 120.875 12.905ZM125.687 9.695V14.78C125.687 15.28 125.782 15.625 125.972 15.815C126.162 16.005 126.497 16.1 126.977 16.1H127.937V17H126.812C126.072 17 125.522 16.83 125.162 16.49C124.802 16.14 124.622 15.57 124.622 14.78V9.695H123.482V8.81H124.622V6.755H125.687V8.81H127.937V9.695H125.687ZM129.189 12.89C129.189 12.05 129.354 11.315 129.684 10.685C130.024 10.045 130.489 9.555 131.079 9.215C131.679 8.865 132.354 8.69 133.104 8.69C133.884 8.69 134.554 8.87 135.114 9.23C135.684 9.59 136.094 10.05 136.344 10.61V8.81H137.394V17H136.344V15.185C136.084 15.745 135.669 16.21 135.099 16.58C134.539 16.94 133.869 17.12 133.089 17.12C132.349 17.12 131.679 16.945 131.079 16.595C130.489 16.245 130.024 15.75 129.684 15.11C129.354 14.47 129.189 13.73 129.189 12.89ZM136.344 12.905C136.344 12.245 136.209 11.665 135.939 11.165C135.669 10.665 135.299 10.28 134.829 10.01C134.369 9.74 133.859 9.605 133.299 9.605C132.719 9.605 132.199 9.735 131.739 9.995C131.279 10.255 130.914 10.635 130.644 11.135C130.384 11.625 130.254 12.21 130.254 12.89C130.254 13.56 130.384 14.15 130.644 14.66C130.914 15.16 131.279 15.545 131.739 15.815C132.199 16.075 132.719 16.205 133.299 16.205C133.859 16.205 134.369 16.07 134.829 15.8C135.299 15.53 135.669 15.145 135.939 14.645C136.209 14.145 136.344 13.565 136.344 12.905ZM146.886 8.81V17H145.836V15.56C145.596 16.07 145.226 16.46 144.726 16.73C144.226 17 143.666 17.135 143.046 17.135C142.066 17.135 141.266 16.835 140.646 16.235C140.026 15.625 139.716 14.745 139.716 13.595V8.81H140.751V13.475C140.751 14.365 140.971 15.045 141.411 15.515C141.861 15.985 142.471 16.22 143.241 16.22C144.031 16.22 144.661 15.97 145.131 15.47C145.601 14.97 145.836 14.235 145.836 13.265V8.81H146.886Z" fill="#ACACAC"/>
<rect x="162" y="11" width="100" height="1" fill="#ACACAC" fill-opacity="0.75"/>
<rect y="11" width="100" height="1" fill="#ACACAC" fill-opacity="0.75"/>
</svg>
