<svg width="179" height="74" viewBox="0 0 179 74" fill="none" xmlns="http://www.w3.org/2000/svg">
<g filter="url(#filter0_d_1_414)">
<rect x="79.1957" y="3.07373" width="13.4732" height="46.1527" rx="6.73658" fill="white"/>
<rect x="155.448" y="3.07373" width="13.4732" height="46.1527" rx="6.73658" fill="white"/>
<path fill-rule="evenodd" clip-rule="evenodd" d="M114.457 26.0774V42.4899C114.457 46.2104 111.441 49.2265 107.72 49.2265C104 49.2265 100.984 46.2105 100.984 42.4899L100.984 10.7569C100.672 8.71083 101.304 6.54878 102.88 4.9731C105.486 2.36637 109.698 2.34252 112.334 4.90156C112.429 4.99092 112.521 5.08301 112.611 5.1777L133.664 26.2304V9.81037C133.664 6.08986 136.68 3.07378 140.4 3.07378C144.121 3.07378 147.137 6.08985 147.137 9.81036V42.4899C147.137 46.2104 144.121 49.2265 140.4 49.2265C138.695 49.2265 137.138 48.5931 135.952 47.5488C135.833 47.4453 135.717 47.337 135.603 47.2238L114.457 26.0774Z" fill="white"/>
<rect x="79.1957" y="66.7148" width="13.4732" height="89.7255" rx="6.73658" transform="rotate(-90 79.1957 66.7148)" fill="white"/>
<path fill-rule="evenodd" clip-rule="evenodd" d="M70.8835 10.5837C71.1349 8.58953 70.4949 6.50441 68.9636 4.9731C66.3328 2.3423 62.0674 2.3423 59.4366 4.9731L35.4683 28.9414L11.6832 5.15622C11.6104 5.08008 11.5359 5.00565 11.4596 4.93299C8.82572 2.34237 4.59046 2.35574 1.9731 4.9731C0.399169 6.54703 -0.233123 8.70601 0.0762171 10.75L0.0762171 60.2631C0.0762171 63.9836 3.09229 66.9996 6.8128 66.9996C10.5333 66.9996 13.5494 63.9836 13.5494 60.2631V26.0763L30.7082 43.2352C33.339 45.866 37.6044 45.866 40.2352 43.2352C40.2958 43.1746 40.355 43.1131 40.4128 43.0509L57.4103 26.0533V60.2631C57.4103 63.9836 60.4264 66.9996 64.1469 66.9996C67.8674 66.9996 70.8835 63.9836 70.8835 60.2631V10.5837Z" fill="white"/>
</g>
<defs>
<filter id="filter0_d_1_414" x="0" y="0" width="178.922" height="73.9996" filterUnits="userSpaceOnUse" color-interpolation-filters="sRGB">
<feFlood flood-opacity="0" result="BackgroundImageFix"/>
<feColorMatrix in="SourceAlpha" type="matrix" values="0 0 0 0 0 0 0 0 0 0 0 0 0 0 0 0 0 0 127 0" result="hardAlpha"/>
<feOffset dx="5" dy="2"/>
<feGaussianBlur stdDeviation="2.5"/>
<feComposite in2="hardAlpha" operator="out"/>
<feColorMatrix type="matrix" values="0 0 0 0 0 0 0 0 0 0 0 0 0 0 0 0 0 0 0.25 0"/>
<feBlend mode="normal" in2="BackgroundImageFix" result="effect1_dropShadow_1_414"/>
<feBlend mode="normal" in="SourceGraphic" in2="effect1_dropShadow_1_414" result="shape"/>
</filter>
</defs>
</svg>
