<svg width="15" height="21" viewBox="0 0 15 21" fill="none" xmlns="http://www.w3.org/2000/svg">
<path d="M8.75 5.8125V0.5H0.9375C0.390625 0.5 0 0.929688 0 1.4375V19.5625C0 20.1094 0.390625 20.5 0.9375 20.5H14.0625C14.5703 20.5 15 20.1094 15 19.5625V6.75H9.6875C9.14062 6.75 8.75 6.35938 8.75 5.8125ZM11.25 15.0312C11.25 15.3047 11.0156 15.5 10.7812 15.5H4.21875C3.94531 15.5 3.75 15.3047 3.75 15.0312V14.7188C3.75 14.4844 3.94531 14.25 4.21875 14.25H10.7812C11.0156 14.25 11.25 14.4844 11.25 14.7188V15.0312ZM11.25 12.5312C11.25 12.8047 11.0156 13 10.7812 13H4.21875C3.94531 13 3.75 12.8047 3.75 12.5312V12.2188C3.75 11.9844 3.94531 11.75 4.21875 11.75H10.7812C11.0156 11.75 11.25 11.9844 11.25 12.2188V12.5312ZM11.25 9.71875V10.0312C11.25 10.3047 11.0156 10.5 10.7812 10.5H4.21875C3.94531 10.5 3.75 10.3047 3.75 10.0312V9.71875C3.75 9.48438 3.94531 9.25 4.21875 9.25H10.7812C11.0156 9.25 11.25 9.48438 11.25 9.71875ZM15 5.26562C15 5.03125 14.8828 4.79688 14.7266 4.60156L10.8984 0.773438C10.7031 0.617188 10.4688 0.5 10.2344 0.5H10V5.5H15V5.26562Z" fill="#49BBBD"/>
</svg>
