<svg width="20" height="15" viewBox="0 0 20 15" fill="none" xmlns="http://www.w3.org/2000/svg">
<path d="M12.9688 10H14.4922C14.7266 10 15 9.76562 15 9.53125V4.25781C15 4.02344 14.7266 3.75 14.4922 3.75H12.9688C12.7344 3.75 12.5 4.02344 12.5 4.25781V9.53125C12.5 9.76562 12.7344 10 12.9688 10ZM16.7188 10H18.2422C18.4766 10 18.75 9.76562 18.75 9.53125V0.507812C18.75 0.273438 18.4766 0 18.2422 0H16.7188C16.4844 0 16.25 0.273438 16.25 0.507812V9.53125C16.25 9.76562 16.4844 10 16.7188 10ZM5.46875 10H6.99219C7.22656 10 7.5 9.76562 7.5 9.53125V6.75781C7.5 6.52344 7.22656 6.25 6.99219 6.25H5.46875C5.23438 6.25 5 6.52344 5 6.75781V9.53125C5 9.76562 5.23438 10 5.46875 10ZM9.21875 10H10.7422C10.9766 10 11.25 9.76562 11.25 9.53125V1.75781C11.25 1.52344 10.9766 1.25 10.7422 1.25H9.21875C8.98438 1.25 8.75 1.52344 8.75 1.75781V9.53125C8.75 9.76562 8.98438 10 9.21875 10ZM19.375 12.5H2.5V0.625C2.5 0.3125 2.1875 0 1.875 0H0.625C0.273438 0 0 0.3125 0 0.625V13.75C0 14.4531 0.546875 15 1.25 15H19.375C19.6875 15 20 14.7266 20 14.375V13.125C20 12.8125 19.6875 12.5 19.375 12.5Z" fill="#49BBBD"/>
</svg>
