<svg width="22" height="21" viewBox="0 0 22 21" fill="none" xmlns="http://www.w3.org/2000/svg">
<path d="M18.8906 10.5L20.6875 8.74219C21.2344 8.23438 20.9609 7.33594 20.2578 7.17969L17.8359 6.55469L18.5 4.13281C18.6953 3.42969 18.0703 2.76562 17.3672 2.96094L14.9453 3.66406L14.3203 1.20312C14.1641 0.539062 13.2266 0.265625 12.7188 0.8125L11 2.60938L9.24219 0.8125C8.73438 0.265625 7.79688 0.5 7.64062 1.20312L7.01562 3.66406L4.59375 2.96094C3.89062 2.76562 3.26562 3.42969 3.46094 4.13281L4.125 6.55469L1.70312 7.17969C1 7.33594 0.726562 8.23438 1.27344 8.74219L3.07031 10.5L1.27344 12.2578C0.726562 12.7656 1 13.6641 1.70312 13.8594L4.125 14.4844L3.46094 16.9062C3.26562 17.6094 3.89062 18.2344 4.59375 18.0391L7.01562 17.375L7.64062 19.7969C7.83594 20.5391 8.73438 20.7344 9.24219 20.2266L11 18.4297L12.7188 20.2266C13.2266 20.7734 14.125 20.5391 14.3203 19.7969L14.9453 17.375L17.3672 18.0391C18.0703 18.2344 18.6953 17.6094 18.5 16.9062L17.8359 14.4844L20.2578 13.8594C20.9609 13.6641 21.2344 12.7656 20.6875 12.2578L18.8906 10.5Z" fill="#49BBBD"/>
</svg>
