<svg width="20" height="19" viewBox="0 0 20 19" fill="none" xmlns="http://www.w3.org/2000/svg">
<path d="M20 5.125C20 4.10938 19.1406 3.25 18.125 3.25H14.6875L14.1797 2C13.9062 1.25781 13.2031 0.75 12.4219 0.75H7.53906C6.75781 0.75 6.05469 1.25781 5.78125 2L5.3125 3.25H1.875C0.820312 3.25 0 4.10938 0 5.125V16.375C0 17.4297 0.820312 18.25 1.875 18.25H18.125C19.1406 18.25 20 17.4297 20 16.375V5.125ZM14.6875 10.75C14.6875 13.3672 12.5781 15.4375 10 15.4375C7.38281 15.4375 5.3125 13.3672 5.3125 10.75C5.3125 8.17188 7.38281 6.0625 10 6.0625C12.5781 6.0625 14.6875 8.17188 14.6875 10.75ZM13.4375 10.75C13.4375 8.875 11.875 7.3125 10 7.3125C8.08594 7.3125 6.5625 8.875 6.5625 10.75C6.5625 12.6641 8.08594 14.1875 10 14.1875C11.875 14.1875 13.4375 12.6641 13.4375 10.75Z" fill="#49BBBD"/>
</svg>
