<svg width="255" height="256" viewBox="0 0 255 256" fill="none" xmlns="http://www.w3.org/2000/svg">
<path d="M13.6984 204.06L9.15844 212.74V218H7.33844V212.74L2.77844 204.06H4.79844L8.23844 211.12L11.6784 204.06H13.6984ZM20.3981 218.18C19.3715 218.18 18.4381 217.947 17.5981 217.48C16.7715 217.013 16.1181 216.353 15.6381 215.5C15.1715 214.633 14.9381 213.633 14.9381 212.5C14.9381 211.38 15.1781 210.393 15.6581 209.54C16.1515 208.673 16.8181 208.013 17.6581 207.56C18.4981 207.093 19.4381 206.86 20.4781 206.86C21.5181 206.86 22.4581 207.093 23.2981 207.56C24.1381 208.013 24.7981 208.667 25.2781 209.52C25.7715 210.373 26.0181 211.367 26.0181 212.5C26.0181 213.633 25.7648 214.633 25.2581 215.5C24.7648 216.353 24.0915 217.013 23.2381 217.48C22.3848 217.947 21.4381 218.18 20.3981 218.18ZM20.3981 216.58C21.0515 216.58 21.6648 216.427 22.2381 216.12C22.8115 215.813 23.2715 215.353 23.6181 214.74C23.9781 214.127 24.1581 213.38 24.1581 212.5C24.1581 211.62 23.9848 210.873 23.6381 210.26C23.2915 209.647 22.8381 209.193 22.2781 208.9C21.7181 208.593 21.1115 208.44 20.4581 208.44C19.7915 208.44 19.1781 208.593 18.6181 208.9C18.0715 209.193 17.6315 209.647 17.2981 210.26C16.9648 210.873 16.7981 211.62 16.7981 212.5C16.7981 213.393 16.9581 214.147 17.2781 214.76C17.6115 215.373 18.0515 215.833 18.5981 216.14C19.1448 216.433 19.7448 216.58 20.3981 216.58ZM38.1311 207.04V218H36.3111V216.38C35.9644 216.94 35.4778 217.38 34.8511 217.7C34.2378 218.007 33.5578 218.16 32.8111 218.16C31.9578 218.16 31.1911 217.987 30.5111 217.64C29.8311 217.28 29.2911 216.747 28.8911 216.04C28.5044 215.333 28.3111 214.473 28.3111 213.46V207.04H30.1111V213.22C30.1111 214.3 30.3844 215.133 30.9311 215.72C31.4778 216.293 32.2244 216.58 33.1711 216.58C34.1444 216.58 34.9111 216.28 35.4711 215.68C36.0311 215.08 36.3111 214.207 36.3111 213.06V207.04H38.1311ZM51.9761 206.84C52.8028 206.84 53.5494 207.02 54.2161 207.38C54.8828 207.727 55.4028 208.253 55.7761 208.96C56.1628 209.667 56.3561 210.527 56.3561 211.54V218H54.5561V211.8C54.5561 210.707 54.2828 209.873 53.7361 209.3C53.1894 208.713 52.4428 208.42 51.4961 208.42C50.5361 208.42 49.7694 208.72 49.1961 209.32C48.6361 209.92 48.3561 210.793 48.3561 211.94V218H46.5361V203.2H48.3561V208.6C48.7161 208.04 49.2094 207.607 49.8361 207.3C50.4761 206.993 51.1894 206.84 51.9761 206.84ZM58.6491 212.48C58.6491 211.36 58.8757 210.38 59.3291 209.54C59.7824 208.687 60.4024 208.027 61.1891 207.56C61.9891 207.093 62.8757 206.86 63.8491 206.86C64.8091 206.86 65.6424 207.067 66.3491 207.48C67.0557 207.893 67.5824 208.413 67.9291 209.04V207.04H69.7691V218H67.9291V215.96C67.5691 216.6 67.0291 217.133 66.3091 217.56C65.6024 217.973 64.7757 218.18 63.8291 218.18C62.8557 218.18 61.9757 217.94 61.1891 217.46C60.4024 216.98 59.7824 216.307 59.3291 215.44C58.8757 214.573 58.6491 213.587 58.6491 212.48ZM67.9291 212.5C67.9291 211.673 67.7624 210.953 67.4291 210.34C67.0957 209.727 66.6424 209.26 66.0691 208.94C65.5091 208.607 64.8891 208.44 64.2091 208.44C63.5291 208.44 62.9091 208.6 62.3491 208.92C61.7891 209.24 61.3424 209.707 61.0091 210.32C60.6757 210.933 60.5091 211.653 60.5091 212.48C60.5091 213.32 60.6757 214.053 61.0091 214.68C61.3424 215.293 61.7891 215.767 62.3491 216.1C62.9091 216.42 63.5291 216.58 64.2091 216.58C64.8891 216.58 65.5091 216.42 66.0691 216.1C66.6424 215.767 67.0957 215.293 67.4291 214.68C67.7624 214.053 67.9291 213.327 67.9291 212.5ZM76.9247 216.32L80.3247 207.04H82.2647L77.9647 218H75.8447L71.5447 207.04H73.5047L76.9247 216.32ZM94.0556 212.1C94.0556 212.447 94.0356 212.813 93.9956 213.2H85.2356C85.3023 214.28 85.669 215.127 86.3356 215.74C87.0156 216.34 87.8356 216.64 88.7956 216.64C89.5823 216.64 90.2356 216.46 90.7556 216.1C91.289 215.727 91.6623 215.233 91.8756 214.62H93.8356C93.5423 215.673 92.9556 216.533 92.0756 217.2C91.1956 217.853 90.1023 218.18 88.7956 218.18C87.7556 218.18 86.8223 217.947 85.9956 217.48C85.1823 217.013 84.5423 216.353 84.0756 215.5C83.609 214.633 83.3756 213.633 83.3756 212.5C83.3756 211.367 83.6023 210.373 84.0556 209.52C84.509 208.667 85.1423 208.013 85.9556 207.56C86.7823 207.093 87.729 206.86 88.7956 206.86C89.8356 206.86 90.7556 207.087 91.5556 207.54C92.3556 207.993 92.969 208.62 93.3956 209.42C93.8356 210.207 94.0556 211.1 94.0556 212.1ZM92.1756 211.72C92.1756 211.027 92.0223 210.433 91.7156 209.94C91.409 209.433 90.989 209.053 90.4556 208.8C89.9356 208.533 89.3556 208.4 88.7156 208.4C87.7956 208.4 87.009 208.693 86.3556 209.28C85.7156 209.867 85.349 210.68 85.2556 211.72H92.1756ZM107.13 206.84C108.463 206.84 109.543 207.247 110.37 208.06C111.197 208.86 111.61 210.02 111.61 211.54V218H109.81V211.8C109.81 210.707 109.537 209.873 108.99 209.3C108.443 208.713 107.697 208.42 106.75 208.42C105.79 208.42 105.023 208.72 104.45 209.32C103.89 209.92 103.61 210.793 103.61 211.94V218H101.79V207.04H103.61V208.6C103.97 208.04 104.457 207.607 105.07 207.3C105.697 206.993 106.383 206.84 107.13 206.84ZM119.363 218.18C118.336 218.18 117.403 217.947 116.563 217.48C115.736 217.013 115.083 216.353 114.603 215.5C114.136 214.633 113.903 213.633 113.903 212.5C113.903 211.38 114.143 210.393 114.623 209.54C115.116 208.673 115.783 208.013 116.623 207.56C117.463 207.093 118.403 206.86 119.443 206.86C120.483 206.86 121.423 207.093 122.263 207.56C123.103 208.013 123.763 208.667 124.243 209.52C124.736 210.373 124.983 211.367 124.983 212.5C124.983 213.633 124.73 214.633 124.223 215.5C123.73 216.353 123.056 217.013 122.203 217.48C121.35 217.947 120.403 218.18 119.363 218.18ZM119.363 216.58C120.016 216.58 120.63 216.427 121.203 216.12C121.776 215.813 122.236 215.353 122.583 214.74C122.943 214.127 123.123 213.38 123.123 212.5C123.123 211.62 122.95 210.873 122.603 210.26C122.256 209.647 121.803 209.193 121.243 208.9C120.683 208.593 120.076 208.44 119.423 208.44C118.756 208.44 118.143 208.593 117.583 208.9C117.036 209.193 116.596 209.647 116.263 210.26C115.93 210.873 115.763 211.62 115.763 212.5C115.763 213.393 115.923 214.147 116.243 214.76C116.576 215.373 117.016 215.833 117.563 216.14C118.11 216.433 118.71 216.58 119.363 216.58ZM129.596 208.54V215C129.596 215.533 129.709 215.913 129.936 216.14C130.163 216.353 130.556 216.46 131.116 216.46H132.456V218H130.816C129.803 218 129.043 217.767 128.536 217.3C128.029 216.833 127.776 216.067 127.776 215V208.54H126.356V207.04H127.776V204.28H129.596V207.04H132.456V208.54H129.596ZM141.813 208.82C142.133 208.193 142.586 207.707 143.173 207.36C143.773 207.013 144.5 206.84 145.353 206.84V208.72H144.873C142.833 208.72 141.813 209.827 141.813 212.04V218H139.993V207.04H141.813V208.82ZM157.454 212.1C157.454 212.447 157.434 212.813 157.394 213.2H148.634C148.701 214.28 149.067 215.127 149.734 215.74C150.414 216.34 151.234 216.64 152.194 216.64C152.981 216.64 153.634 216.46 154.154 216.1C154.687 215.727 155.061 215.233 155.274 214.62H157.234C156.941 215.673 156.354 216.533 155.474 217.2C154.594 217.853 153.501 218.18 152.194 218.18C151.154 218.18 150.221 217.947 149.394 217.48C148.581 217.013 147.941 216.353 147.474 215.5C147.007 214.633 146.774 213.633 146.774 212.5C146.774 211.367 147.001 210.373 147.454 209.52C147.907 208.667 148.541 208.013 149.354 207.56C150.181 207.093 151.127 206.86 152.194 206.86C153.234 206.86 154.154 207.087 154.954 207.54C155.754 207.993 156.367 208.62 156.794 209.42C157.234 210.207 157.454 211.1 157.454 212.1ZM155.574 211.72C155.574 211.027 155.421 210.433 155.114 209.94C154.807 209.433 154.387 209.053 153.854 208.8C153.334 208.533 152.754 208.4 152.114 208.4C151.194 208.4 150.407 208.693 149.754 209.28C149.114 209.867 148.747 210.68 148.654 211.72H155.574ZM164.376 206.86C165.323 206.86 166.15 207.067 166.856 207.48C167.576 207.893 168.11 208.413 168.456 209.04V207.04H170.296V218.24C170.296 219.24 170.083 220.127 169.656 220.9C169.23 221.687 168.616 222.3 167.816 222.74C167.03 223.18 166.11 223.4 165.056 223.4C163.616 223.4 162.416 223.06 161.456 222.38C160.496 221.7 159.93 220.773 159.756 219.6H161.556C161.756 220.267 162.17 220.8 162.796 221.2C163.423 221.613 164.176 221.82 165.056 221.82C166.056 221.82 166.87 221.507 167.496 220.88C168.136 220.253 168.456 219.373 168.456 218.24V215.94C168.096 216.58 167.563 217.113 166.856 217.54C166.15 217.967 165.323 218.18 164.376 218.18C163.403 218.18 162.516 217.94 161.716 217.46C160.93 216.98 160.31 216.307 159.856 215.44C159.403 214.573 159.176 213.587 159.176 212.48C159.176 211.36 159.403 210.38 159.856 209.54C160.31 208.687 160.93 208.027 161.716 207.56C162.516 207.093 163.403 206.86 164.376 206.86ZM168.456 212.5C168.456 211.673 168.29 210.953 167.956 210.34C167.623 209.727 167.17 209.26 166.596 208.94C166.036 208.607 165.416 208.44 164.736 208.44C164.056 208.44 163.436 208.6 162.876 208.92C162.316 209.24 161.87 209.707 161.536 210.32C161.203 210.933 161.036 211.653 161.036 212.48C161.036 213.32 161.203 214.053 161.536 214.68C161.87 215.293 162.316 215.767 162.876 216.1C163.436 216.42 164.056 216.58 164.736 216.58C165.416 216.58 166.036 216.42 166.596 216.1C167.17 215.767 167.623 215.293 167.956 214.68C168.29 214.053 168.456 213.327 168.456 212.5ZM174.312 205.26C173.965 205.26 173.672 205.14 173.432 204.9C173.192 204.66 173.072 204.367 173.072 204.02C173.072 203.673 173.192 203.38 173.432 203.14C173.672 202.9 173.965 202.78 174.312 202.78C174.645 202.78 174.925 202.9 175.152 203.14C175.392 203.38 175.512 203.673 175.512 204.02C175.512 204.367 175.392 204.66 175.152 204.9C174.925 205.14 174.645 205.26 174.312 205.26ZM175.192 207.04V218H173.372V207.04H175.192ZM182.174 218.18C181.334 218.18 180.581 218.04 179.914 217.76C179.247 217.467 178.721 217.067 178.334 216.56C177.947 216.04 177.734 215.447 177.694 214.78H179.574C179.627 215.327 179.881 215.773 180.334 216.12C180.801 216.467 181.407 216.64 182.154 216.64C182.847 216.64 183.394 216.487 183.794 216.18C184.194 215.873 184.394 215.487 184.394 215.02C184.394 214.54 184.181 214.187 183.754 213.96C183.327 213.72 182.667 213.487 181.774 213.26C180.961 213.047 180.294 212.833 179.774 212.62C179.267 212.393 178.827 212.067 178.454 211.64C178.094 211.2 177.914 210.627 177.914 209.92C177.914 209.36 178.081 208.847 178.414 208.38C178.747 207.913 179.221 207.547 179.834 207.28C180.447 207 181.147 206.86 181.934 206.86C183.147 206.86 184.127 207.167 184.874 207.78C185.621 208.393 186.021 209.233 186.074 210.3H184.254C184.214 209.727 183.981 209.267 183.554 208.92C183.141 208.573 182.581 208.4 181.874 208.4C181.221 208.4 180.701 208.54 180.314 208.82C179.927 209.1 179.734 209.467 179.734 209.92C179.734 210.28 179.847 210.58 180.074 210.82C180.314 211.047 180.607 211.233 180.954 211.38C181.314 211.513 181.807 211.667 182.434 211.84C183.221 212.053 183.861 212.267 184.354 212.48C184.847 212.68 185.267 212.987 185.614 213.4C185.974 213.813 186.161 214.353 186.174 215.02C186.174 215.62 186.007 216.16 185.674 216.64C185.341 217.12 184.867 217.5 184.254 217.78C183.654 218.047 182.961 218.18 182.174 218.18ZM190.963 208.54V215C190.963 215.533 191.076 215.913 191.303 216.14C191.53 216.353 191.923 216.46 192.483 216.46H193.823V218H192.183C191.17 218 190.41 217.767 189.903 217.3C189.396 216.833 189.143 216.067 189.143 215V208.54H187.723V207.04H189.143V204.28H190.963V207.04H193.823V208.54H190.963ZM206.028 212.1C206.028 212.447 206.008 212.813 205.968 213.2H197.208C197.275 214.28 197.642 215.127 198.308 215.74C198.988 216.34 199.808 216.64 200.768 216.64C201.555 216.64 202.208 216.46 202.728 216.1C203.262 215.727 203.635 215.233 203.848 214.62H205.808C205.515 215.673 204.928 216.533 204.048 217.2C203.168 217.853 202.075 218.18 200.768 218.18C199.728 218.18 198.795 217.947 197.968 217.48C197.155 217.013 196.515 216.353 196.048 215.5C195.582 214.633 195.348 213.633 195.348 212.5C195.348 211.367 195.575 210.373 196.028 209.52C196.482 208.667 197.115 208.013 197.928 207.56C198.755 207.093 199.702 206.86 200.768 206.86C201.808 206.86 202.728 207.087 203.528 207.54C204.328 207.993 204.942 208.62 205.368 209.42C205.808 210.207 206.028 211.1 206.028 212.1ZM204.148 211.72C204.148 211.027 203.995 210.433 203.688 209.94C203.382 209.433 202.962 209.053 202.428 208.8C201.908 208.533 201.328 208.4 200.688 208.4C199.768 208.4 198.982 208.693 198.328 209.28C197.688 209.867 197.322 210.68 197.228 211.72H204.148ZM210.251 208.82C210.571 208.193 211.024 207.707 211.611 207.36C212.211 207.013 212.937 206.84 213.791 206.84V208.72H213.311C211.271 208.72 210.251 209.827 210.251 212.04V218H208.431V207.04H210.251V208.82ZM225.892 212.1C225.892 212.447 225.872 212.813 225.832 213.2H217.072C217.138 214.28 217.505 215.127 218.172 215.74C218.852 216.34 219.672 216.64 220.632 216.64C221.418 216.64 222.072 216.46 222.592 216.1C223.125 215.727 223.498 215.233 223.712 214.62H225.672C225.378 215.673 224.792 216.533 223.912 217.2C223.032 217.853 221.938 218.18 220.632 218.18C219.592 218.18 218.658 217.947 217.832 217.48C217.018 217.013 216.378 216.353 215.912 215.5C215.445 214.633 215.212 213.633 215.212 212.5C215.212 211.367 215.438 210.373 215.892 209.52C216.345 208.667 216.978 208.013 217.792 207.56C218.618 207.093 219.565 206.86 220.632 206.86C221.672 206.86 222.592 207.087 223.392 207.54C224.192 207.993 224.805 208.62 225.232 209.42C225.672 210.207 225.892 211.1 225.892 212.1ZM224.012 211.72C224.012 211.027 223.858 210.433 223.552 209.94C223.245 209.433 222.825 209.053 222.292 208.8C221.772 208.533 221.192 208.4 220.552 208.4C219.632 208.4 218.845 208.693 218.192 209.28C217.552 209.867 217.185 210.68 217.092 211.72H224.012ZM227.614 212.48C227.614 211.36 227.841 210.38 228.294 209.54C228.747 208.687 229.367 208.027 230.154 207.56C230.954 207.093 231.847 206.86 232.834 206.86C233.687 206.86 234.481 207.06 235.214 207.46C235.947 207.847 236.507 208.36 236.894 209V203.2H238.734V218H236.894V215.94C236.534 216.593 236.001 217.133 235.294 217.56C234.587 217.973 233.761 218.18 232.814 218.18C231.841 218.18 230.954 217.94 230.154 217.46C229.367 216.98 228.747 216.307 228.294 215.44C227.841 214.573 227.614 213.587 227.614 212.48ZM236.894 212.5C236.894 211.673 236.727 210.953 236.394 210.34C236.061 209.727 235.607 209.26 235.034 208.94C234.474 208.607 233.854 208.44 233.174 208.44C232.494 208.44 231.874 208.6 231.314 208.92C230.754 209.24 230.307 209.707 229.974 210.32C229.641 210.933 229.474 211.653 229.474 212.48C229.474 213.32 229.641 214.053 229.974 214.68C230.307 215.293 230.754 215.767 231.314 216.1C231.874 216.42 232.494 216.58 233.174 216.58C233.854 216.58 234.474 216.42 235.034 216.1C235.607 215.767 236.061 215.293 236.394 214.68C236.727 214.053 236.894 213.327 236.894 212.5ZM58.4375 238.54H56.1375V248H54.3175V238.54H52.8975V237.04H54.3175V236.26C54.3175 235.033 54.6308 234.14 55.2575 233.58C55.8975 233.007 56.9175 232.72 58.3175 232.72V234.24C57.5175 234.24 56.9508 234.4 56.6175 234.72C56.2975 235.027 56.1375 235.54 56.1375 236.26V237.04H58.4375V238.54ZM65.3395 248.18C64.3129 248.18 63.3795 247.947 62.5395 247.48C61.7129 247.013 61.0595 246.353 60.5795 245.5C60.1129 244.633 59.8795 243.633 59.8795 242.5C59.8795 241.38 60.1195 240.393 60.5995 239.54C61.0929 238.673 61.7595 238.013 62.5995 237.56C63.4395 237.093 64.3795 236.86 65.4195 236.86C66.4595 236.86 67.3995 237.093 68.2395 237.56C69.0795 238.013 69.7395 238.667 70.2195 239.52C70.7129 240.373 70.9595 241.367 70.9595 242.5C70.9595 243.633 70.7062 244.633 70.1995 245.5C69.7062 246.353 69.0329 247.013 68.1795 247.48C67.3262 247.947 66.3795 248.18 65.3395 248.18ZM65.3395 246.58C65.9929 246.58 66.6062 246.427 67.1795 246.12C67.7529 245.813 68.2129 245.353 68.5595 244.74C68.9195 244.127 69.0995 243.38 69.0995 242.5C69.0995 241.62 68.9262 240.873 68.5795 240.26C68.2329 239.647 67.7795 239.193 67.2195 238.9C66.6595 238.593 66.0529 238.44 65.3995 238.44C64.7329 238.44 64.1195 238.593 63.5595 238.9C63.0129 239.193 62.5729 239.647 62.2395 240.26C61.9062 240.873 61.7395 241.62 61.7395 242.5C61.7395 243.393 61.8995 244.147 62.2195 244.76C62.5529 245.373 62.9929 245.833 63.5395 246.14C64.0862 246.433 64.6862 246.58 65.3395 246.58ZM75.1725 238.82C75.4925 238.193 75.9458 237.707 76.5325 237.36C77.1325 237.013 77.8592 236.84 78.7125 236.84V238.72H78.2325C76.1925 238.72 75.1725 239.827 75.1725 242.04V248H73.3525V237.04H75.1725V238.82ZM85.4655 242.48C85.4655 241.36 85.6921 240.38 86.1455 239.54C86.5988 238.687 87.2188 238.027 88.0055 237.56C88.8055 237.093 89.6921 236.86 90.6655 236.86C91.6255 236.86 92.4588 237.067 93.1655 237.48C93.8721 237.893 94.3988 238.413 94.7455 239.04V237.04H96.5855V248H94.7455V245.96C94.3855 246.6 93.8455 247.133 93.1255 247.56C92.4188 247.973 91.5921 248.18 90.6455 248.18C89.6721 248.18 88.7921 247.94 88.0055 247.46C87.2188 246.98 86.5988 246.307 86.1455 245.44C85.6921 244.573 85.4655 243.587 85.4655 242.48ZM94.7455 242.5C94.7455 241.673 94.5788 240.953 94.2455 240.34C93.9121 239.727 93.4588 239.26 92.8855 238.94C92.3255 238.607 91.7055 238.44 91.0255 238.44C90.3455 238.44 89.7255 238.6 89.1655 238.92C88.6055 239.24 88.1588 239.707 87.8255 240.32C87.4921 240.933 87.3255 241.653 87.3255 242.48C87.3255 243.32 87.4921 244.053 87.8255 244.68C88.1588 245.293 88.6055 245.767 89.1655 246.1C89.7255 246.42 90.3455 246.58 91.0255 246.58C91.7055 246.58 92.3255 246.42 92.8855 246.1C93.4588 245.767 93.9121 245.293 94.2455 244.68C94.5788 244.053 94.7455 243.327 94.7455 242.5ZM105.001 236.84C106.334 236.84 107.414 237.247 108.241 238.06C109.068 238.86 109.481 240.02 109.481 241.54V248H107.681V241.8C107.681 240.707 107.408 239.873 106.861 239.3C106.314 238.713 105.568 238.42 104.621 238.42C103.661 238.42 102.894 238.72 102.321 239.32C101.761 239.92 101.481 240.793 101.481 241.94V248H99.6611V237.04H101.481V238.6C101.841 238.04 102.328 237.607 102.941 237.3C103.568 236.993 104.254 236.84 105.001 236.84ZM121.894 237.04L115.294 253.16H113.414L115.574 247.88L111.154 237.04H113.174L116.614 245.92L120.014 237.04H121.894ZM128.376 242.5C128.376 241.367 128.602 240.38 129.056 239.54C129.509 238.687 130.136 238.027 130.936 237.56C131.749 237.093 132.676 236.86 133.716 236.86C135.062 236.86 136.169 237.187 137.036 237.84C137.916 238.493 138.496 239.4 138.776 240.56H136.816C136.629 239.893 136.262 239.367 135.716 238.98C135.182 238.593 134.516 238.4 133.716 238.4C132.676 238.4 131.836 238.76 131.196 239.48C130.556 240.187 130.236 241.193 130.236 242.5C130.236 243.82 130.556 244.84 131.196 245.56C131.836 246.28 132.676 246.64 133.716 246.64C134.516 246.64 135.182 246.453 135.716 246.08C136.249 245.707 136.616 245.173 136.816 244.48H138.776C138.482 245.6 137.896 246.5 137.016 247.18C136.136 247.847 135.036 248.18 133.716 248.18C132.676 248.18 131.749 247.947 130.936 247.48C130.136 247.013 129.509 246.353 129.056 245.5C128.602 244.647 128.376 243.647 128.376 242.5ZM145.984 248.18C144.957 248.18 144.024 247.947 143.184 247.48C142.357 247.013 141.704 246.353 141.224 245.5C140.757 244.633 140.524 243.633 140.524 242.5C140.524 241.38 140.764 240.393 141.244 239.54C141.737 238.673 142.404 238.013 143.244 237.56C144.084 237.093 145.024 236.86 146.064 236.86C147.104 236.86 148.044 237.093 148.884 237.56C149.724 238.013 150.384 238.667 150.864 239.52C151.357 240.373 151.604 241.367 151.604 242.5C151.604 243.633 151.351 244.633 150.844 245.5C150.351 246.353 149.677 247.013 148.824 247.48C147.971 247.947 147.024 248.18 145.984 248.18ZM145.984 246.58C146.637 246.58 147.251 246.427 147.824 246.12C148.397 245.813 148.857 245.353 149.204 244.74C149.564 244.127 149.744 243.38 149.744 242.5C149.744 241.62 149.571 240.873 149.224 240.26C148.877 239.647 148.424 239.193 147.864 238.9C147.304 238.593 146.697 238.44 146.044 238.44C145.377 238.44 144.764 238.593 144.204 238.9C143.657 239.193 143.217 239.647 142.884 240.26C142.551 240.873 142.384 241.62 142.384 242.5C142.384 243.393 142.544 244.147 142.864 244.76C143.197 245.373 143.637 245.833 144.184 246.14C144.731 246.433 145.331 246.58 145.984 246.58ZM163.717 237.04V248H161.897V246.38C161.55 246.94 161.064 247.38 160.437 247.7C159.824 248.007 159.144 248.16 158.397 248.16C157.544 248.16 156.777 247.987 156.097 247.64C155.417 247.28 154.877 246.747 154.477 246.04C154.09 245.333 153.897 244.473 153.897 243.46V237.04H155.697V243.22C155.697 244.3 155.97 245.133 156.517 245.72C157.064 246.293 157.81 246.58 158.757 246.58C159.73 246.58 160.497 246.28 161.057 245.68C161.617 245.08 161.897 244.207 161.897 243.06V237.04H163.717ZM168.61 238.82C168.93 238.193 169.383 237.707 169.97 237.36C170.57 237.013 171.297 236.84 172.15 236.84V238.72H171.67C169.63 238.72 168.61 239.827 168.61 242.04V248H166.79V237.04H168.61V238.82ZM178.131 248.18C177.291 248.18 176.538 248.04 175.871 247.76C175.204 247.467 174.678 247.067 174.291 246.56C173.904 246.04 173.691 245.447 173.651 244.78H175.531C175.584 245.327 175.838 245.773 176.291 246.12C176.758 246.467 177.364 246.64 178.111 246.64C178.804 246.64 179.351 246.487 179.751 246.18C180.151 245.873 180.351 245.487 180.351 245.02C180.351 244.54 180.138 244.187 179.711 243.96C179.284 243.72 178.624 243.487 177.731 243.26C176.918 243.047 176.251 242.833 175.731 242.62C175.224 242.393 174.784 242.067 174.411 241.64C174.051 241.2 173.871 240.627 173.871 239.92C173.871 239.36 174.038 238.847 174.371 238.38C174.704 237.913 175.178 237.547 175.791 237.28C176.404 237 177.104 236.86 177.891 236.86C179.104 236.86 180.084 237.167 180.831 237.78C181.578 238.393 181.978 239.233 182.031 240.3H180.211C180.171 239.727 179.938 239.267 179.511 238.92C179.098 238.573 178.538 238.4 177.831 238.4C177.178 238.4 176.658 238.54 176.271 238.82C175.884 239.1 175.691 239.467 175.691 239.92C175.691 240.28 175.804 240.58 176.031 240.82C176.271 241.047 176.564 241.233 176.911 241.38C177.271 241.513 177.764 241.667 178.391 241.84C179.178 242.053 179.818 242.267 180.311 242.48C180.804 242.68 181.224 242.987 181.571 243.4C181.931 243.813 182.118 244.353 182.131 245.02C182.131 245.62 181.964 246.16 181.631 246.64C181.298 247.12 180.824 247.5 180.211 247.78C179.611 248.047 178.918 248.18 178.131 248.18ZM194.7 242.1C194.7 242.447 194.68 242.813 194.64 243.2H185.88C185.947 244.28 186.313 245.127 186.98 245.74C187.66 246.34 188.48 246.64 189.44 246.64C190.227 246.64 190.88 246.46 191.4 246.1C191.933 245.727 192.307 245.233 192.52 244.62H194.48C194.187 245.673 193.6 246.533 192.72 247.2C191.84 247.853 190.747 248.18 189.44 248.18C188.4 248.18 187.467 247.947 186.64 247.48C185.827 247.013 185.187 246.353 184.72 245.5C184.253 244.633 184.02 243.633 184.02 242.5C184.02 241.367 184.247 240.373 184.7 239.52C185.153 238.667 185.787 238.013 186.6 237.56C187.427 237.093 188.373 236.86 189.44 236.86C190.48 236.86 191.4 237.087 192.2 237.54C193 237.993 193.613 238.62 194.04 239.42C194.48 240.207 194.7 241.1 194.7 242.1ZM192.82 241.72C192.82 241.027 192.667 240.433 192.36 239.94C192.053 239.433 191.633 239.053 191.1 238.8C190.58 238.533 190 238.4 189.36 238.4C188.44 238.4 187.653 238.693 187 239.28C186.36 239.867 185.993 240.68 185.9 241.72H192.82Z" fill="#2F327D"/>
<path d="M141.628 30.1888L216.62 154.476C223.255 165.473 215.336 179.5 202.492 179.5H52.508C39.6643 179.5 31.7451 165.473 38.3804 154.476L113.372 30.1889C119.789 19.5545 135.211 19.5545 141.628 30.1888Z" stroke="#2F327D" stroke-width="7"/>
<path d="M123.2 80.5932C123.091 78.0894 125.091 76 127.598 76V76C130.029 76 132 77.9708 132 80.402V118.424C132 120.399 130.398 122 128.423 122V122C126.509 122 124.934 120.492 124.851 118.579L123.2 80.5932Z" fill="#49BBBD"/>
<rect x="125" y="136" width="7" height="8" rx="3.5" fill="#49BBBD"/>
</svg>
